<svg width="1920" height="356" viewBox="0 0 1920 356" fill="none" xmlns="http://www.w3.org/2000/svg">
<g clip-path="url(#clip0_301_3011)">
<mask id="mask0_301_3011" style="mask-type:luminance" maskUnits="userSpaceOnUse" x="0" y="-95" width="1920" height="500">
<path d="M1920 -95H0V405H1920V-95Z" fill="white"/>
</mask>
<g mask="url(#mask0_301_3011)">
<path d="M1779.83 104.749L1688 4.52979V3.18213L1687.38 3.85596L1686.77 3.18213V4.52979L1594.93 104.754H1642.7V331.94H1733.3V104.749H1779.83Z" fill="#F4EA04" stroke="#283C8D" stroke-width="2" stroke-linecap="round" stroke-linejoin="round"/>
<path d="M1799.88 181.648L1739.13 115.348V114.456L1738.72 114.902L1738.31 114.456V115.348L1677.56 181.648H1709.16V331.94H1769.09V181.648H1799.88Z" fill="white" stroke="#283C8D" stroke-width="2" stroke-linecap="round" stroke-linejoin="round"/>
<path d="M379.866 331.94H305.571L307.871 293.355L311.798 227.581L312.498 215.871L315.898 158.827L317.108 138.627L319.983 90.2778L320.789 76.7969H364.65L365.456 90.2778L368.331 138.627L369.541 158.827L372.941 215.871L373.641 227.581L377.568 293.355L379.866 331.94Z" stroke="#283C8D" stroke-width="2" stroke-linecap="round" stroke-linejoin="round"/>
<path d="M319.982 90.2817L342.719 113.019L368.331 138.631" stroke="#283C8D" stroke-width="2" stroke-linecap="round" stroke-linejoin="round"/>
<path d="M317.107 138.63L342.719 113.018L365.456 90.2808" stroke="#283C8D" stroke-width="2" stroke-linecap="round" stroke-linejoin="round"/>
<path d="M315.897 158.83L342.719 185.652L372.942 215.875" stroke="#283C8D" stroke-width="2" stroke-linecap="round" stroke-linejoin="round"/>
<path d="M369.54 158.83L342.717 185.648L312.494 215.871" stroke="#283C8D" stroke-width="2" stroke-linecap="round" stroke-linejoin="round"/>
<path d="M377.569 293.355L342.717 258.505L311.793 227.581" stroke="#283C8D" stroke-width="2" stroke-linecap="round" stroke-linejoin="round"/>
<path d="M307.868 293.355L342.719 258.504L373.643 227.58" stroke="#283C8D" stroke-width="2" stroke-linecap="round" stroke-linejoin="round"/>
<path d="M384.793 108.139V90.2817H300.646V108.139" stroke="#283C8D" stroke-width="2" stroke-linecap="round" stroke-linejoin="round"/>
<path d="M187.079 331.94H156.148L165.124 136.779H178.102L187.079 331.94Z" fill="white" stroke="#263A8D" stroke-width="2" stroke-linecap="round" stroke-linejoin="round"/>
<path d="M182.817 91.2998C182.817 119.262 177.802 128.153 171.617 128.153C165.432 128.153 160.417 119.262 160.417 91.2998C160.417 63.3378 171.617 26.8999 171.617 26.8999C171.617 26.8999 182.817 63.3388 182.817 91.2998Z" fill="white" stroke="#283C8D" stroke-width="2" stroke-linecap="round" stroke-linejoin="round"/>
<path d="M126.626 149.82C150.841 135.839 161.049 135.736 164.142 141.093C167.235 146.45 162.042 155.239 137.827 169.22C113.612 183.201 76.452 191.72 76.452 191.72C76.452 191.72 102.411 163.8 126.626 149.82Z" fill="white" stroke="#283C8D" stroke-width="2" stroke-linecap="round" stroke-linejoin="round"/>
<path d="M205.399 169.22C181.184 155.239 175.991 146.45 179.084 141.093C182.177 135.736 192.384 135.839 216.6 149.82C240.816 163.801 266.775 191.72 266.775 191.72C266.775 191.72 229.617 183.2 205.399 169.22Z" fill="white" stroke="#283C8D" stroke-width="2" stroke-linecap="round" stroke-linejoin="round"/>
<path d="M171.613 152.244C180.154 152.244 187.078 145.32 187.078 136.779C187.078 128.238 180.154 121.314 171.613 121.314C163.072 121.314 156.148 128.238 156.148 136.779C156.148 145.32 163.072 152.244 171.613 152.244Z" fill="white" stroke="#283C8D" stroke-width="2" stroke-linecap="round" stroke-linejoin="round"/>
<path d="M610.478 157.664C610.507 153.571 609.643 149.52 607.947 145.794C606.251 142.069 603.764 138.758 600.658 136.091C597.552 133.425 593.902 131.468 589.962 130.356C586.023 129.244 581.888 129.003 577.847 129.652C576.19 123.683 572.624 118.421 567.692 114.671C562.761 110.922 556.737 108.892 550.542 108.892C544.347 108.892 538.323 110.922 533.392 114.671C528.461 118.421 524.894 123.683 523.238 129.652C516.901 128.75 510.445 129.241 504.317 131.089C498.19 132.937 492.539 136.099 487.758 140.354C482.977 144.609 479.181 149.855 476.635 155.727C474.089 161.599 472.853 167.955 473.014 174.354C473.175 180.752 474.729 187.038 477.567 192.774C480.406 198.51 484.461 203.559 489.449 207.568C494.438 211.578 500.241 214.451 506.454 215.989C512.666 217.526 519.14 217.692 525.423 216.472C527.784 221.141 531.392 225.064 535.847 227.808C540.302 230.551 545.43 232.007 550.662 232.015C555.894 232.022 561.026 230.581 565.488 227.851C569.951 225.12 573.571 221.207 575.946 216.545C593.342 201.022 605.422 180.425 610.478 157.664Z" fill="#BED970" stroke="#283C8D" stroke-width="2" stroke-linecap="round" stroke-linejoin="round"/>
<path d="M550.543 329.645V145.869ZM531.207 156.523L549.607 174.923ZM573.063 191.473L551.963 212.573Z" fill="white"/>
<path d="M550.543 329.645V145.869M531.207 156.523L549.607 174.923M573.063 191.473L551.963 212.573" stroke="#283C8D" stroke-width="2" stroke-linecap="round" stroke-linejoin="round"/>
<path d="M519.964 196.156C525.828 196.156 530.583 191.402 530.583 185.537C530.583 179.672 525.828 174.918 519.964 174.918C514.099 174.918 509.345 179.672 509.345 185.537C509.345 191.402 514.099 196.156 519.964 196.156Z" fill="#F4EA04" stroke="#283C8D" stroke-width="2" stroke-linecap="round" stroke-linejoin="round"/>
<path d="M577.43 170.231C583.294 170.231 588.049 165.477 588.049 159.612C588.049 153.747 583.294 148.993 577.43 148.993C571.565 148.993 566.811 153.747 566.811 159.612C566.811 165.477 571.565 170.231 577.43 170.231Z" fill="#F4EA04" stroke="#283C8D" stroke-width="2" stroke-linecap="round" stroke-linejoin="round"/>
<path d="M528.929 204.444L601.359 76.3081L731.805 9.56006L862.291 76.3081L934.723 204.444H528.929Z" fill="#F4EA04" stroke="#283C8D" stroke-width="2" stroke-linecap="round" stroke-linejoin="round"/>
<path d="M900.489 184.471V330.183H825.731V220.683H637.917V330.183H563.16V184.471H900.489Z" fill="#F4EA04" stroke="#283C8D" stroke-width="2" stroke-linecap="round" stroke-linejoin="round"/>
<path d="M900.489 184.471H563.16L615.794 91.3579L731.807 31.9961L847.855 91.3579L900.489 184.471Z" fill="#1FA7DF" stroke="#283C8D" stroke-width="2" stroke-linecap="round" stroke-linejoin="round"/>
<path d="M825.731 220.688H637.919V330.183H825.731V220.688Z" fill="white" stroke="#273C8D" stroke-width="2" stroke-linecap="round" stroke-linejoin="round"/>
<path d="M704.022 92.0742H750.796V138.848H704.022V92.0742Z" fill="white" stroke="#283C8D" stroke-width="2" stroke-linecap="round"/>
<path d="M1374.39 87.8018V331.94H1433.51V87.8018L1403.94 37.7241L1374.39 87.8018Z" fill="#1FA7DF" stroke="#283C8D" stroke-width="2" stroke-linecap="round" stroke-linejoin="round"/>
<path d="M1570.01 87.8018H1433.51V331.94H1570.01V87.8018Z" fill="#1FA7DF" stroke="#283C8D" stroke-width="2" stroke-linecap="round" stroke-linejoin="round"/>
<path d="M1403.93 37.7251L1433.51 87.8032H1570.02L1540.44 37.7251H1403.93Z" fill="#1FA7DF" stroke="#283C8D" stroke-width="2" stroke-linecap="round" stroke-linejoin="round"/>
<path d="M1540.44 9.56006H1403.93V37.7251H1540.44V9.56006Z" fill="#1FA7DF" stroke="#283C8D" stroke-width="2" stroke-linecap="round" stroke-linejoin="round"/>
<path d="M1433.51 331.94L1403.94 281.862L1374.39 331.94H1433.51Z" fill="#1FA7DF" stroke="#283C8D" stroke-width="2" stroke-linecap="round" stroke-linejoin="round"/>
<path d="M1319.76 163.93L1322.56 310.73C1322.61 313.361 1322.13 315.976 1321.17 318.423C1320.2 320.871 1318.76 323.103 1316.92 324.992C1315.09 326.88 1312.9 328.387 1310.48 329.426C1308.07 330.466 1305.47 331.016 1302.84 331.047H1214.27C1211.64 331.016 1209.04 330.466 1206.62 329.427C1204.2 328.388 1202.01 326.881 1200.18 324.992C1198.35 323.104 1196.91 320.872 1195.94 318.424C1194.97 315.976 1194.5 313.361 1194.55 310.73L1197.35 163.93C1197.46 140.154 1204.54 117.202 1217.35 98.9912C1223.47 90.073 1226.72 79.4994 1226.68 68.6821L1226.76 34.7129H1290.35L1290.43 68.6821C1290.39 79.4994 1293.64 90.0731 1299.76 98.9912C1312.57 117.198 1319.65 140.15 1319.76 163.93Z" fill="white" stroke="#283B8E" stroke-width="2" stroke-linecap="round" stroke-linejoin="round"/>
<path d="M1318.35 184.215C1298.41 184.215 1298.41 181.536 1278.47 181.536C1258.54 181.536 1258.54 184.215 1238.6 184.215C1218.66 184.215 1218.66 181.536 1198.72 181.536" fill="white"/>
<path d="M1318.35 184.215C1298.41 184.215 1298.41 181.536 1278.47 181.536C1258.54 181.536 1258.54 184.215 1238.6 184.215C1218.66 184.215 1218.66 181.536 1198.72 181.536" stroke="#283B8E" stroke-width="2" stroke-linecap="round" stroke-linejoin="round"/>
<path d="M1212.2 16.4009C1212.2 18.8051 1212.68 21.1859 1213.6 23.4072C1214.52 25.6286 1215.86 27.647 1217.56 29.3472C1219.26 31.0473 1221.28 32.3959 1223.5 33.3159C1225.72 34.2359 1228.11 34.7092 1230.51 34.709H1286.59C1289 34.7092 1291.38 34.2359 1293.6 33.3159C1295.82 32.3959 1297.84 31.0473 1299.54 29.3472C1301.24 27.647 1302.59 25.6286 1303.51 23.4072C1304.43 21.1859 1304.9 18.8051 1304.9 16.4009H1212.2Z" fill="white" stroke="#283B8E" stroke-width="2" stroke-linecap="round" stroke-linejoin="round"/>
<path d="M1142.58 240.966H1174.49L1167.25 271.291H1135.34L1142.58 240.966Z" fill="white" stroke="#283B8E" stroke-width="2" stroke-linecap="round" stroke-linejoin="round"/>
<path d="M1174.49 240.966H1206.4L1199.16 271.291H1167.25L1174.49 240.966Z" fill="white" stroke="#283B8E" stroke-width="2" stroke-linecap="round" stroke-linejoin="round"/>
<path d="M1206.4 240.966H1238.31L1231.07 271.291H1199.16L1206.4 240.966Z" fill="white" stroke="#283B8E" stroke-width="2" stroke-linecap="round" stroke-linejoin="round"/>
<path d="M1135.34 271.291H1167.25L1160.01 301.616H1128.1L1135.34 271.291Z" fill="white" stroke="#283B8E" stroke-width="2" stroke-linecap="round" stroke-linejoin="round"/>
<path d="M1167.25 271.291H1199.16L1191.92 301.616H1160.01L1167.25 271.291Z" fill="white" stroke="#283B8E" stroke-width="2" stroke-linecap="round" stroke-linejoin="round"/>
<path d="M1199.16 271.291H1231.07L1223.82 301.616H1191.92L1199.16 271.291Z" fill="white" stroke="#283B8E" stroke-width="2" stroke-linecap="round" stroke-linejoin="round"/>
<path d="M1128.1 301.616H1160.01L1152.77 331.941H1120.86L1128.1 301.616Z" fill="white" stroke="#283B8E" stroke-width="2" stroke-linecap="round" stroke-linejoin="round"/>
<path d="M1160.01 301.616H1191.92L1184.67 331.941H1152.77L1160.01 301.616Z" fill="white" stroke="#283B8E" stroke-width="2" stroke-linecap="round" stroke-linejoin="round"/>
<path d="M1191.92 301.616H1223.83L1216.58 331.941H1184.67L1191.92 301.616Z" fill="white" stroke="#283B8E" stroke-width="2" stroke-linecap="round" stroke-linejoin="round"/>
<path d="M1267.58 240.966H1299.49L1292.25 271.291H1260.34L1267.58 240.966Z" fill="white" stroke="#283B8E" stroke-width="2" stroke-linecap="round" stroke-linejoin="round"/>
<path d="M1299.49 240.966H1331.4L1324.16 271.291H1292.25L1299.49 240.966Z" fill="white" stroke="#283B8E" stroke-width="2" stroke-linecap="round" stroke-linejoin="round"/>
<path d="M1331.4 240.966H1363.31L1356.07 271.291H1324.16L1331.4 240.966Z" fill="white" stroke="#283B8E" stroke-width="2" stroke-linecap="round" stroke-linejoin="round"/>
<path d="M1260.34 271.291H1292.25L1285.01 301.616H1253.1L1260.34 271.291Z" fill="white" stroke="#283B8E" stroke-width="2" stroke-linecap="round" stroke-linejoin="round"/>
<path d="M1292.25 271.291H1324.16L1316.92 301.616H1285.01L1292.25 271.291Z" fill="white" stroke="#283B8E" stroke-width="2" stroke-linecap="round" stroke-linejoin="round"/>
<path d="M1324.16 271.291H1356.07L1348.82 301.616H1316.92L1324.16 271.291Z" fill="white" stroke="#283B8E" stroke-width="2" stroke-linecap="round" stroke-linejoin="round"/>
<path d="M1253.1 301.616H1285.01L1277.77 331.941H1245.86L1253.1 301.616Z" fill="white" stroke="#283B8E" stroke-width="2" stroke-linecap="round" stroke-linejoin="round"/>
<path d="M1285.01 301.616H1316.92L1309.67 331.941H1277.77L1285.01 301.616Z" fill="white" stroke="#283B8E" stroke-width="2" stroke-linecap="round" stroke-linejoin="round"/>
<path d="M1316.92 301.616H1348.83L1341.58 331.941H1309.67L1316.92 301.616Z" fill="white" stroke="#283B8E" stroke-width="2" stroke-linecap="round" stroke-linejoin="round"/>
<path d="M1021.58 240.966H1053.49L1046.25 271.291H1014.34L1021.58 240.966Z" fill="white" stroke="#283B8E" stroke-width="2" stroke-linecap="round" stroke-linejoin="round"/>
<path d="M1053.49 240.966H1085.4L1078.16 271.291H1046.25L1053.49 240.966Z" fill="white" stroke="#283B8E" stroke-width="2" stroke-linecap="round" stroke-linejoin="round"/>
<path d="M1085.4 240.966H1117.31L1110.07 271.291H1078.16L1085.4 240.966Z" fill="white" stroke="#283B8E" stroke-width="2" stroke-linecap="round" stroke-linejoin="round"/>
<path d="M1014.34 271.291H1046.25L1039.01 301.616H1007.1L1014.34 271.291Z" fill="white" stroke="#283B8E" stroke-width="2" stroke-linecap="round" stroke-linejoin="round"/>
<path d="M1046.25 271.291H1078.16L1070.92 301.616H1039.01L1046.25 271.291Z" fill="white" stroke="#283B8E" stroke-width="2" stroke-linecap="round" stroke-linejoin="round"/>
<path d="M1078.16 271.291H1110.07L1102.82 301.616H1070.92L1078.16 271.291Z" fill="white" stroke="#283B8E" stroke-width="2" stroke-linecap="round" stroke-linejoin="round"/>
<path d="M1007.1 301.616H1039.01L1031.77 331.941H999.857L1007.1 301.616Z" fill="white" stroke="#283B8E" stroke-width="2" stroke-linecap="round" stroke-linejoin="round"/>
<path d="M1039.01 301.616H1070.92L1063.67 331.941H1031.77L1039.01 301.616Z" fill="white" stroke="#283B8E" stroke-width="2" stroke-linecap="round" stroke-linejoin="round"/>
<path d="M1070.92 301.616H1102.83L1095.58 331.941H1063.67L1070.92 301.616Z" fill="white" stroke="#283B8E" stroke-width="2" stroke-linecap="round" stroke-linejoin="round"/>
<path d="M900.582 240.966H932.491L925.249 271.291H893.34L900.582 240.966Z" fill="white" stroke="#283B8E" stroke-width="2" stroke-linecap="round" stroke-linejoin="round"/>
<path d="M932.491 240.966H964.4L957.158 271.291H925.249L932.491 240.966Z" fill="white" stroke="#283B8E" stroke-width="2" stroke-linecap="round" stroke-linejoin="round"/>
<path d="M964.4 240.966H996.309L989.067 271.291H957.158L964.4 240.966Z" fill="white" stroke="#283B8E" stroke-width="2" stroke-linecap="round" stroke-linejoin="round"/>
<path d="M893.34 271.291H925.249L918.007 301.616H886.098L893.34 271.291Z" fill="white" stroke="#283B8E" stroke-width="2" stroke-linecap="round" stroke-linejoin="round"/>
<path d="M925.249 271.291H957.158L949.916 301.616H918.007L925.249 271.291Z" fill="white" stroke="#283B8E" stroke-width="2" stroke-linecap="round" stroke-linejoin="round"/>
<path d="M957.158 271.291H989.067L981.825 301.616H949.917L957.158 271.291Z" fill="white" stroke="#283B8E" stroke-width="2" stroke-linecap="round" stroke-linejoin="round"/>
<path d="M886.099 301.616H918.008L910.766 331.941H878.857L886.099 301.616Z" fill="white" stroke="#283B8E" stroke-width="2" stroke-linecap="round" stroke-linejoin="round"/>
<path d="M918.008 301.616H949.917L942.675 331.941H910.766L918.008 301.616Z" fill="white" stroke="#283B8E" stroke-width="2" stroke-linecap="round" stroke-linejoin="round"/>
<path d="M949.917 301.616H981.826L974.584 331.941H942.675L949.917 301.616Z" fill="white" stroke="#283B8E" stroke-width="2" stroke-linecap="round" stroke-linejoin="round"/>
<path d="M1591.27 345.796C1591.27 345.796 1604.16 315.754 1581.59 300.478C1562.53 287.578 1533.22 294.878 1533.22 294.878C1533.22 294.878 1539.5 297.947 1541.53 321.939C1543.49 345.018 1577.01 352.925 1591.27 345.796Z" fill="#BED970" stroke="#273C8E" stroke-width="2" stroke-linecap="round" stroke-linejoin="round"/>
<path d="M1540.35 298.442C1540.35 298.442 1568.35 307.607 1577.52 333.066Z" fill="#BED970"/>
<path d="M1540.35 298.442C1540.35 298.442 1568.35 307.607 1577.52 333.066" stroke="#273C8E" stroke-width="2" stroke-linecap="round" stroke-linejoin="round"/>
<path d="M1617.19 257.23C1617.19 257.23 1604.29 227.188 1626.86 211.913C1645.92 199.013 1675.23 206.313 1675.23 206.313C1675.23 206.313 1668.96 209.381 1666.92 233.374C1664.96 256.457 1631.44 264.364 1617.19 257.23Z" fill="#BED970" stroke="#273C8E" stroke-width="2" stroke-linecap="round" stroke-linejoin="round"/>
<path d="M1668.11 209.881C1668.11 209.881 1640.1 219.047 1630.94 244.506Z" fill="#BED970"/>
<path d="M1668.11 209.881C1668.11 209.881 1640.1 219.047 1630.94 244.506" stroke="#273C8E" stroke-width="2" stroke-linecap="round" stroke-linejoin="round"/>
<path d="M1339.37 345.796C1339.37 345.796 1326.47 315.754 1349.04 300.478C1368.1 287.578 1397.41 294.878 1397.41 294.878C1397.41 294.878 1391.14 297.947 1389.1 321.939C1387.14 345.018 1353.62 352.925 1339.37 345.796Z" fill="#BED970" stroke="#273C8E" stroke-width="2" stroke-linecap="round" stroke-linejoin="round"/>
<path d="M1390.29 298.442C1390.29 298.442 1362.28 307.607 1353.12 333.066Z" fill="#BED970"/>
<path d="M1390.29 298.442C1390.29 298.442 1362.28 307.607 1353.12 333.066" stroke="#273C8E" stroke-width="2" stroke-linecap="round" stroke-linejoin="round"/>
<path d="M1105.14 95.8428V83.814L1094.41 81.8779C1093.73 77.2936 1092.5 72.8093 1090.73 68.5259L1098.94 61.5918L1092.91 51.1802L1082.67 54.8799C1079.78 51.2547 1076.47 47.9893 1072.8 45.1538L1076.45 35.0352L1066.01 29.0078L1059.01 37.3379C1054.69 35.6248 1050.18 34.4561 1045.58 33.8589L1043.69 23.2749H1031.64L1029.73 33.9819C1025.14 34.6648 1020.66 35.9076 1016.38 37.6821L1009.44 29.4751L999.004 35.502L1002.7 45.7432C999.081 48.6272 995.824 51.9428 993.004 55.6162L982.885 51.9658L976.858 62.3779L985.188 69.4102C983.475 73.7145 982.306 78.2159 981.709 82.8101L971.125 84.7212V96.751L981.832 98.6621C982.503 103.258 983.746 107.752 985.532 112.039L977.3 118.948L983.327 129.385L993.593 125.685C996.474 129.311 999.781 132.576 1003.44 135.412L999.791 145.531L1010.23 151.558L1017.23 143.228C1021.55 144.927 1026.06 146.095 1030.66 146.706L1032.55 157.291H1044.6L1046.51 146.584C1051.11 145.898 1055.6 144.656 1059.89 142.884L1066.8 151.092L1077.24 145.065L1073.54 134.824C1077.16 131.94 1080.42 128.624 1083.24 124.95L1093.35 128.601L1099.38 118.188L1091.08 111.157C1092.77 106.847 1093.93 102.347 1094.53 97.7568L1105.14 95.8428Z" fill="#F4EA04" stroke="#283B8E" stroke-width="2" stroke-linecap="round" stroke-linejoin="round"/>
<path d="M1075.61 90.272C1075.61 97.6904 1073.42 104.943 1069.3 111.113C1065.18 117.283 1059.32 122.092 1052.47 124.933C1045.61 127.773 1038.07 128.518 1030.8 127.071C1023.52 125.625 1016.84 122.053 1011.59 116.808C1006.35 111.562 1002.77 104.878 1001.33 97.6021C999.881 90.326 1000.63 82.7847 1003.47 75.9316C1006.31 69.0786 1011.12 63.2221 1017.29 59.103C1023.46 54.9839 1030.71 52.7873 1038.13 52.791C1043.05 52.7898 1047.92 53.7584 1052.47 55.6416C1057.02 57.5248 1061.15 60.2854 1064.63 63.7661C1068.11 67.2468 1070.87 71.3793 1072.76 75.9273C1074.64 80.4752 1075.61 85.3496 1075.61 90.272Z" fill="#1A68B2" stroke="#283B8E" stroke-width="2" stroke-linecap="round" stroke-linejoin="round"/>
<path d="M1023.7 86.9009C1023.7 86.9009 1036.25 101.449 1037.25 100.446L1057.63 80.0679" stroke="#BED970" stroke-width="2" stroke-linecap="round" stroke-linejoin="round"/>
<path d="M763.727 309.205C775.475 309.205 784.999 299.681 784.999 287.933C784.999 276.185 775.475 266.661 763.727 266.661C751.979 266.661 742.455 276.185 742.455 287.933C742.455 299.681 751.979 309.205 763.727 309.205Z" fill="white" stroke="#283C8D" stroke-width="2" stroke-linecap="round" stroke-linejoin="round"/>
<path d="M825.817 256.845L821.079 328.952H809.859L806.868 283.289C806.868 283.289 795.137 280.956 794.912 266.697" fill="white"/>
<path d="M825.817 256.845L821.079 328.952H809.859L806.868 283.289C806.868 283.289 795.137 280.956 794.912 266.697" stroke="#283C8D" stroke-width="2" stroke-linecap="round" stroke-linejoin="round"/>
<path d="M881.573 208.647V247.959C881.573 247.959 863.627 288.326 803.297 287.93C742.967 287.534 719.397 277.579 710.997 254.03C700.692 225.139 721.46 208.65 737.879 208.65L881.573 208.647Z" fill="white" stroke="#283C8D" stroke-width="2" stroke-linecap="round" stroke-linejoin="round"/>
<path d="M870.864 228.607C867.264 231.151 863.264 221.418 863.264 221.418C861.147 229.887 845.703 227.13 842.322 220.154C838.941 213.178 828.583 213.818 831.964 221.205C835.345 228.592 817.373 236.649 811.664 222.271C810.475 217.2 808.017 212.514 804.521 208.654H870.213C870.489 208.919 870.711 209.234 870.868 209.583C871.503 211.914 874.458 226.079 870.864 228.607Z" fill="#283C8D"/>
<path d="M863.966 198.055L851.591 197.562C851.591 197.562 835.408 191.522 835.079 196.905C834.748 202.312 841.392 210.398 850.547 209.88L863.966 209.122V198.055Z" fill="white" stroke="#283C8D" stroke-width="2" stroke-linecap="round" stroke-linejoin="round"/>
<path d="M904.037 209.401C903.941 210.835 903.712 212.258 903.352 213.65L900.64 224.266L896.24 241.493C896.863 241.915 897.377 242.479 897.739 243.138C898.102 243.797 898.304 244.533 898.327 245.285C898.327 248.103 895.555 250.385 892.127 250.385C891.541 250.38 890.958 250.303 890.391 250.156C889.274 251.37 887.917 252.341 886.407 253.007C884.897 253.673 883.266 254.019 881.616 254.024C879.966 254.03 878.332 253.695 876.817 253.04C875.303 252.385 873.94 251.423 872.814 250.217C872.312 250.318 871.803 250.375 871.291 250.385C867.864 250.385 865.077 248.1 865.077 245.285C865.096 244.577 865.274 243.882 865.598 243.251C865.922 242.621 866.384 242.072 866.95 241.645L859.807 213.645C859.446 212.253 859.217 210.831 859.121 209.396C858.717 205.429 859.547 201.435 861.497 197.957C862.382 196.325 863.691 194.961 865.286 194.009C866.881 193.058 868.703 192.553 870.56 192.55H892.599C894.455 192.557 896.276 193.063 897.87 194.014C899.464 194.965 900.774 196.327 901.662 197.957C903.607 201.438 904.436 205.433 904.037 209.401Z" fill="white" stroke="#283C8D" stroke-width="2" stroke-linecap="round" stroke-linejoin="round"/>
<path d="M731.686 274.736L718.304 290.906L722.681 329.046H732.143L731.685 302.476L744.161 290L731.686 274.736Z" fill="white" stroke="#283C8D" stroke-width="2" stroke-linecap="round" stroke-linejoin="round"/>
<path d="M771.101 242.068C771.101 242.068 770.323 278.104 749.064 299.622L764.3 329.046H752.374L715.88 263.586" fill="white"/>
<path d="M771.101 242.068C771.101 242.068 770.323 278.104 749.064 299.622L764.3 329.046H752.374L715.88 263.586" stroke="#283C8D" stroke-width="2" stroke-linecap="round" stroke-linejoin="round"/>
<path d="M783.302 247.222C781.603 247.228 779.964 247.852 778.691 248.977C777.418 250.102 776.598 251.652 776.383 253.337C775.257 259.612 787.646 261.703 790.221 266.53C792.796 271.357 798.587 269.105 801.001 266.53C803.415 263.955 810.977 262.991 815.643 263.795C820.309 264.599 826.423 258.154 820.631 252.608C814.839 247.062 818.378 239.499 818.378 239.499C818.378 239.499 819.665 231.293 808.885 233.707C798.105 236.121 798.427 246.096 783.302 247.222Z" fill="#283C8D"/>
<path d="M836.709 283.289C836.709 283.289 824.979 280.956 824.753 266.697Z" fill="white"/>
<path d="M836.709 283.289C836.709 283.289 824.979 280.956 824.753 266.697" stroke="#283C8D" stroke-width="2" stroke-linecap="round" stroke-linejoin="round"/>
<path d="M836.709 283.289L839.7 328.952L851.076 329.047L855.657 256.847" fill="white"/>
<path d="M836.709 283.289L839.7 328.952L851.076 329.047L855.657 256.847" stroke="#283C8D" stroke-width="2" stroke-linecap="round" stroke-linejoin="round"/>
<path d="M708.26 238.57V283.43C708.26 286.005 707.237 288.475 705.416 290.296C703.595 292.117 701.125 293.14 698.55 293.14" stroke="#283C8D" stroke-width="2" stroke-linecap="round" stroke-linejoin="round"/>
<path d="M744.141 234.41C753.721 253.084 737.652 265.786 726.241 264.126C724.756 263.85 723.229 263.889 721.76 264.241C720.29 264.592 718.911 265.249 717.712 266.167C714.792 262.536 712.52 258.43 710.995 254.028C700.683 225.134 721.458 208.654 737.878 208.654H785.505C785.551 208.854 785.581 209.066 785.612 209.264C791.052 245.3 734.545 215.752 744.141 234.41Z" fill="#283C8D"/>
<path d="M928.072 196.911C928.392 202.318 921.751 210.391 912.597 209.873C909.197 209.673 906.276 209.523 904.037 209.401C903.942 210.835 903.712 212.258 903.352 213.65L900.64 224.266C894.259 196.256 891.84 218.235 883.262 212.675C877.047 208.624 881.708 192.707 881.708 192.707L881.754 192.555H892.598C894.454 192.563 896.275 193.068 897.869 194.019C899.463 194.97 900.773 196.332 901.661 197.962L911.561 197.562C911.561 197.562 927.737 191.519 928.072 196.911Z" fill="#273C8E" stroke="#283C8D" stroke-width="2" stroke-linecap="round" stroke-linejoin="round"/>
<path d="M871.961 224.157C873.164 224.157 874.14 222.559 874.14 220.588C874.14 218.617 873.164 217.019 871.961 217.019C870.758 217.019 869.782 218.617 869.782 220.588C869.782 222.559 870.758 224.157 871.961 224.157Z" fill="#273C8E"/>
<path d="M889.849 224.157C891.052 224.157 892.028 222.559 892.028 220.588C892.028 218.617 891.052 217.019 889.849 217.019C888.645 217.019 887.67 218.617 887.67 220.588C887.67 222.559 888.645 224.157 889.849 224.157Z" fill="#273C8E"/>
<path d="M898.325 245.285C898.325 248.103 895.553 250.385 892.125 250.385C891.539 250.38 890.956 250.303 890.389 250.156C889.272 251.37 887.915 252.341 886.405 253.007C884.895 253.672 883.264 254.018 881.614 254.024C879.964 254.03 878.33 253.695 876.815 253.04C875.301 252.385 873.938 251.423 872.812 250.217C872.31 250.318 871.801 250.374 871.289 250.385C867.862 250.385 865.075 248.1 865.075 245.285C865.094 244.577 865.272 243.881 865.596 243.251C865.92 242.621 866.382 242.072 866.948 241.645C871.145 237.991 876.535 235.999 882.1 236.045C891.336 236.045 896.237 241.495 896.237 241.495C896.86 241.917 897.374 242.48 897.737 243.139C898.1 243.798 898.301 244.533 898.325 245.285Z" fill="white" stroke="#283C8D" stroke-width="2" stroke-linecap="round" stroke-linejoin="round"/>
<path d="M876.398 242.459V245.635" stroke="#283C8D" stroke-width="2" stroke-linecap="round" stroke-linejoin="round"/>
<path d="M886.963 242.459V245.635" stroke="#283C8D" stroke-width="2" stroke-linecap="round" stroke-linejoin="round"/>
<path d="M1500.55 237.829C1501.15 237.829 1501.63 238.021 1501.99 238.404C1502.35 238.765 1502.53 239.255 1502.53 239.872V258.762C1502.53 259.357 1502.36 259.825 1502.02 260.166C1501.68 260.506 1501.23 260.676 1500.68 260.676C1500.13 260.676 1499.69 260.506 1499.37 260.166C1499.05 259.825 1498.89 259.357 1498.89 258.762V245.615L1493.47 255.89C1493.22 256.358 1492.94 256.709 1492.64 256.943C1492.34 257.156 1491.99 257.262 1491.59 257.262C1491.18 257.262 1490.83 257.156 1490.53 256.943C1490.24 256.73 1489.96 256.379 1489.71 255.89L1484.25 245.775V258.762C1484.25 259.336 1484.08 259.804 1483.74 260.166C1483.42 260.506 1482.98 260.676 1482.43 260.676C1481.88 260.676 1481.44 260.506 1481.12 260.166C1480.8 259.825 1480.64 259.357 1480.64 258.762V239.872C1480.64 239.255 1480.81 238.765 1481.15 238.404C1481.52 238.021 1481.99 237.829 1482.59 237.829C1483.42 237.829 1484.07 238.287 1484.54 239.202L1491.62 252.699L1498.67 239.202C1499.14 238.287 1499.77 237.829 1500.55 237.829ZM1509.04 260.676C1508.46 260.676 1507.98 260.517 1507.6 260.198C1507.24 259.857 1507.06 259.379 1507.06 258.762V246.445C1507.06 245.828 1507.24 245.36 1507.6 245.041C1507.98 244.722 1508.46 244.562 1509.04 244.562C1509.61 244.562 1510.09 244.722 1510.47 245.041C1510.86 245.36 1511.05 245.828 1511.05 246.445V258.762C1511.05 259.379 1510.86 259.857 1510.47 260.198C1510.09 260.517 1509.61 260.676 1509.04 260.676ZM1509.04 241.722C1508.31 241.722 1507.74 241.531 1507.31 241.148C1506.89 240.744 1506.67 240.223 1506.67 239.584C1506.67 238.946 1506.89 238.436 1507.31 238.053C1507.74 237.67 1508.31 237.478 1509.04 237.478C1509.74 237.478 1510.3 237.67 1510.73 238.053C1511.17 238.436 1511.4 238.946 1511.4 239.584C1511.4 240.223 1511.18 240.744 1510.76 241.148C1510.33 241.531 1509.76 241.722 1509.04 241.722ZM1517.14 260.676C1516.56 260.676 1516.09 260.517 1515.7 260.198C1515.34 259.857 1515.16 259.379 1515.16 258.762V239.712C1515.16 239.095 1515.34 238.627 1515.7 238.308C1516.09 237.989 1516.56 237.829 1517.14 237.829C1517.71 237.829 1518.19 237.989 1518.57 238.308C1518.96 238.627 1519.15 239.095 1519.15 239.712V258.762C1519.15 259.379 1518.96 259.857 1518.57 260.198C1518.19 260.517 1517.71 260.676 1517.14 260.676ZM1537.14 257.39C1537.57 257.794 1537.78 258.251 1537.78 258.762C1537.78 259.251 1537.6 259.687 1537.24 260.07C1536.9 260.453 1536.49 260.644 1536.03 260.644C1535.56 260.644 1535.12 260.453 1534.72 260.07L1527.25 253.305V258.762C1527.25 259.379 1527.06 259.847 1526.68 260.166C1526.29 260.485 1525.81 260.644 1525.24 260.644C1524.67 260.644 1524.19 260.485 1523.8 260.166C1523.44 259.847 1523.26 259.379 1523.26 258.762V239.712C1523.26 239.095 1523.44 238.627 1523.8 238.308C1524.19 237.989 1524.67 237.829 1525.24 237.829C1525.81 237.829 1526.29 237.989 1526.68 238.308C1527.06 238.627 1527.25 239.095 1527.25 239.712V251.71L1534.08 245.169C1534.46 244.786 1534.9 244.594 1535.39 244.594C1535.88 244.594 1536.3 244.775 1536.66 245.137C1537.03 245.498 1537.21 245.924 1537.21 246.413C1537.21 246.902 1537 247.349 1536.6 247.753L1531.59 252.412L1537.14 257.39Z" fill="white"/>
<path d="M1504.48 146.074C1531.12 146.074 1552.71 138.489 1552.71 129.132C1552.71 119.775 1531.12 112.19 1504.48 112.19C1477.84 112.19 1456.24 119.775 1456.24 129.132C1456.24 138.489 1477.84 146.074 1504.48 146.074Z" fill="#F4EA04" stroke="#283C8D" stroke-width="2" stroke-linecap="round" stroke-linejoin="round"/>
</g>
</g>
<defs>
<clipPath id="clip0_301_3011">
<rect width="1920" height="356" fill="white"/>
</clipPath>
</defs>
</svg>
