<svg width="134" height="134" viewBox="0 0 134 134" fill="none" xmlns="http://www.w3.org/2000/svg">
<mask id="mask0_30_4555" style="mask-type:luminance" maskUnits="userSpaceOnUse" x="0" y="0" width="134" height="134">
<path d="M134 0H0V134H134V0Z" fill="white"/>
</mask>
<g mask="url(#mask0_30_4555)">
<path d="M117.624 49.9253L106.324 40.3317C105.993 40.0543 105.64 39.8051 105.268 39.5871L105.231 39.5644C104.814 39.3229 104.383 39.1068 103.941 38.917C100.651 37.7275 97.0498 37.7162 93.7523 38.8852C93.6591 38.8271 93.5762 38.755 93.483 38.6987C92.2341 37.979 90.8423 37.5427 89.406 37.4211C87.9697 37.2994 86.5243 37.4951 85.1722 37.9946C84.8241 38.123 84.5322 38.3694 84.3473 38.691C84.1624 39.0126 84.0963 39.3889 84.1604 39.7543C84.4925 41.6451 85.3723 43.3969 86.6908 44.7923C85.0315 45.8728 82.8193 45.878 80.1182 45.8938L36.8405 45.9853C34.0747 45.9942 31.4252 47.1002 29.4736 49.0601C27.5219 51.02 26.4274 53.674 26.4302 56.4399L26.4672 73.5333C26.0883 73.791 25.7784 74.1372 25.5637 74.542C25.349 74.9468 25.2363 75.398 25.2355 75.8562C25.3089 76.8197 25.6449 77.7448 26.2068 78.5309C26.3894 78.861 26.6573 79.1358 26.9823 79.3274C27.3072 79.519 27.6774 79.62 28.0546 79.62C28.4318 79.62 28.802 79.519 29.1269 79.3274C29.4518 79.1358 29.7197 78.861 29.9023 78.5309C30.4611 77.7436 30.7922 76.8176 30.8595 75.8544C30.8581 75.3969 30.7451 74.9465 30.5304 74.5424C30.3158 74.1383 30.0061 73.7924 29.6278 73.535L29.5909 56.4416C29.5894 54.7593 30.1713 53.1284 31.2371 51.8268C32.303 50.5251 33.787 49.6328 35.4366 49.3024C33.6224 51.2333 32.615 53.7848 32.6209 56.4343L32.7193 102.698C32.7193 103.118 32.8863 103.521 33.1833 103.818C33.4803 104.115 33.8832 104.282 34.3033 104.282L39.6562 104.271C40.045 104.27 40.4197 104.126 40.7092 103.867C40.9986 103.607 41.1828 103.25 41.226 102.864L42.9857 87.9682C44.5381 88.6456 46.1717 89.1185 47.8459 89.3756L47.7823 90.2924C47.7679 90.4999 47.7948 90.7082 47.8609 90.9054C47.9271 91.1026 48.0315 91.2851 48.1681 91.442C48.3047 91.5989 48.4707 91.7274 48.657 91.8201C48.8432 91.9127 49.0458 91.9677 49.2533 91.982H49.368C49.7682 91.9803 50.1527 91.8267 50.4446 91.5528C50.7365 91.2789 50.9141 90.9048 50.9412 90.5054L51.0044 89.6028C52.5099 89.5886 54.009 89.4027 55.4723 89.0486L55.7537 89.8825C55.8597 90.1974 56.062 90.4712 56.332 90.6648C56.602 90.8584 56.926 90.962 57.2582 90.9613C57.4287 90.9603 57.5982 90.9322 57.76 90.8783C58.1578 90.744 58.4856 90.4576 58.6721 90.0814C58.8585 89.7053 58.8881 89.2704 58.7541 88.8725L58.4813 88.0614C59.8742 87.4739 61.1929 86.7243 62.4105 85.8283L62.9596 86.4564C63.2359 86.7728 63.6265 86.9667 64.0456 86.9951C64.4647 87.0235 64.878 86.8839 65.1944 86.6076C65.5108 86.3313 65.7048 85.9406 65.7331 85.5215C65.7615 85.1024 65.6219 84.6896 65.3456 84.3732L64.7966 83.7447C65.6521 82.8685 66.4245 81.9149 67.1036 80.8959L75.2739 80.8783L75.3199 102.602C75.3199 103.022 75.4865 103.425 75.7835 103.722C76.0805 104.019 76.4834 104.185 76.9035 104.185L82.2512 104.175C82.6384 104.174 83.012 104.031 83.3012 103.774C83.5904 103.517 83.775 103.162 83.8206 102.778L85.7388 86.553C90.4607 84.4685 94.3024 80.795 96.5959 76.1711C97.7626 73.8236 99.8885 69.5898 101.667 66.0529C101.856 65.6777 101.888 65.2428 101.756 64.844C101.625 64.4451 101.34 64.1151 100.965 63.9263C100.589 63.7375 100.155 63.7055 99.7557 63.8374C99.3569 63.9692 99.0269 64.2539 98.8381 64.6291L97.0256 68.2383C95.7826 67.6153 94.4106 67.293 93.0203 67.297C90.6276 67.3045 88.3359 68.261 86.6474 69.9563C84.959 71.6517 84.012 73.9472 84.0144 76.3399C84.0123 78.6638 84.9147 80.8974 86.5306 82.5675C85.6269 83.1146 84.6795 83.5856 83.6977 83.9754C83.4308 84.0802 83.1971 84.2556 83.022 84.4827C82.8469 84.7099 82.7366 84.9802 82.7032 85.2651L80.84 101.014H78.4801L78.4342 79.2892C78.4342 78.8691 78.2676 78.4662 77.9706 78.1692C77.6736 77.8722 77.2706 77.7056 76.8506 77.7056L57.626 77.746C57.2059 77.746 56.8034 77.913 56.5064 78.21C56.2094 78.507 56.0424 78.9095 56.0424 79.3296C56.0424 79.7496 56.2094 80.1525 56.5064 80.4496C56.8034 80.7466 57.2059 80.9135 57.626 80.9135L63.1129 80.9011C61.5821 82.6445 59.6961 84.0406 57.5817 84.9957C55.4673 85.9508 53.1733 86.4427 50.8532 86.4388C48.9791 86.4415 47.1184 86.125 45.3507 85.5026C47.6113 84.1842 49.619 82.4743 51.2806 80.4526C51.3123 80.4191 51.3439 80.3838 51.3738 80.3469C53.0531 78.2788 54.3405 75.9212 55.1729 73.3906C55.2445 73.1915 55.2754 72.9802 55.264 72.769C55.2525 72.5577 55.199 72.3508 55.1063 72.1606C55.0136 71.9705 54.8838 71.801 54.7244 71.6619C54.565 71.5227 54.3793 71.417 54.1783 71.3508C53.9774 71.2846 53.765 71.2593 53.5541 71.2765C53.3432 71.2937 53.1381 71.3527 52.9505 71.4505C52.7629 71.5483 52.5968 71.6827 52.462 71.8457C52.3273 72.0088 52.2264 72.1973 52.1656 72.3999C51.4668 74.5234 50.3945 76.5052 48.9985 78.2512C48.9668 78.2829 48.9386 78.3162 48.9105 78.3496C46.8438 80.8963 44.1519 82.863 41.0976 84.0579C40.8305 84.1623 40.5968 84.3375 40.4213 84.5644C40.2459 84.7912 40.1351 85.0615 40.1013 85.3463L38.2415 101.095H35.8765L35.7833 56.415C35.7814 54.4889 36.5434 52.6408 37.9025 51.276C39.2617 49.9112 41.1068 49.1413 43.033 49.1352L51.0112 49.1176C52.5044 50.2581 53.5579 51.8791 53.9936 53.7067C54.4293 55.5343 54.2208 57.4563 53.4029 59.1477C55.0347 62.1734 57.7143 64.4999 60.9391 65.6907C64.164 66.8816 67.7123 66.8554 70.919 65.6164C74.1256 64.3774 76.7704 62.0111 78.3568 58.9613C79.9432 55.9115 80.3626 52.3879 79.5361 49.051H80.4404C83.9176 49.051 87.1924 48.9593 89.7668 46.3479L90.2171 45.8887C90.2294 45.8746 90.2348 45.8572 90.2472 45.8431C90.2978 45.7937 90.345 45.7407 90.3881 45.6846C90.6287 45.3406 90.7226 44.9149 90.6497 44.5015C90.5768 44.088 90.3427 43.7208 89.9988 43.4798C90.0454 43.1452 90.1613 42.8238 90.3391 42.5364C90.5168 42.2491 90.7526 42.0019 91.0312 41.8108C91.3098 41.6197 91.6254 41.4887 91.9574 41.4263C92.2895 41.364 92.6307 41.3716 92.9597 41.4486C93.2887 41.5257 93.598 41.6707 93.8679 41.874C94.1378 42.0772 94.3625 42.3343 94.5274 42.6292C94.6922 42.9242 94.7934 43.2504 94.8251 43.5868C94.8568 43.9232 94.818 44.2625 94.7112 44.5831C94.879 44.9659 95.1916 45.2669 95.5803 45.4204C95.9691 45.5739 96.4026 45.5677 96.7867 45.4028C97.1708 45.2379 97.474 44.9277 97.6304 44.5401C97.7869 44.1526 97.7838 43.7191 97.6218 43.3338C97.2993 42.6057 96.8895 41.9194 96.4009 41.2906C96.7619 41.1942 97.1324 41.1382 97.5059 41.1234H99.8868C101.478 41.2249 103.005 41.7841 104.286 42.7336L115.586 52.329C115.953 52.6866 116.204 53.1466 116.306 53.6487C116.408 54.1509 116.357 54.6722 116.159 55.1446L115.806 55.8483C114.992 57.469 114.601 57.7296 113.982 57.7313L103.278 57.7541C102.858 57.7541 102.455 57.9211 102.158 58.2181C101.861 58.5151 101.694 58.918 101.694 59.3381C101.694 59.7581 101.861 60.1606 102.158 60.4576C102.455 60.7546 102.858 60.9216 103.278 60.9216L113.982 60.8988C115.026 60.8192 116.023 60.4334 116.85 59.7896C117.676 59.1457 118.293 58.2722 118.626 57.2789L118.977 56.5752C119.495 55.4683 119.643 54.2241 119.399 53.0267C119.156 51.8292 118.533 50.7419 117.624 49.9253ZM93.0254 70.4645C93.9192 70.4668 94.8005 70.6774 95.5984 71.0802C94.8839 72.5055 94.2379 73.7972 93.7575 74.7632C92.63 77.0225 91.0614 79.0331 89.1439 80.676C88.5282 80.1324 88.0346 79.4644 87.6961 78.7161C87.3576 77.9678 87.1819 77.1561 87.1802 76.3347C87.1788 74.7817 87.7933 73.2916 88.8892 72.1912C89.985 71.0907 91.4724 70.4697 93.0254 70.4645ZM70.9151 57.5449C70.6364 57.5443 70.3583 57.5224 70.083 57.4796C69.8557 57.4573 69.6265 57.4829 69.4098 57.5547C69.193 57.6266 68.9935 57.7431 68.8246 57.8967C68.6538 58.0532 68.5175 58.2436 68.4242 58.4556C68.3309 58.6677 68.2828 58.8967 68.2829 59.1284C68.2864 60.6818 67.6724 62.1733 66.5765 63.2742C65.4805 64.375 63.9923 64.9955 62.4389 64.999C60.8855 65.0025 59.394 64.3886 58.2931 63.2926C57.1923 62.1967 56.5722 60.7085 56.5687 59.155C56.5633 57.9669 56.9232 56.8057 57.5998 55.829C57.724 55.6488 57.8096 55.445 57.8511 55.2301C57.8925 55.0152 57.889 54.794 57.8408 54.5806C57.7925 54.3671 57.7005 54.166 57.5705 53.9898C57.4406 53.8137 57.2756 53.6664 57.0859 53.5572C56.288 53.096 55.6093 52.4539 55.105 51.6824C54.6007 50.9109 54.2845 50.0319 54.1822 49.1159L76.1379 49.0704C76.585 49.9616 76.7968 50.9522 76.7531 51.9483C76.7094 52.9444 76.4116 53.9128 75.8883 54.7614C75.3649 55.6101 74.6334 56.3107 73.763 56.7969C72.8926 57.2832 71.9122 57.539 70.9151 57.5397V57.5449Z" fill="white"/>
<path d="M103.902 48.4914C104.097 48.2955 104.251 48.063 104.355 47.8075C104.46 47.5521 104.512 47.2788 104.511 47.0028C104.508 46.4427 104.287 45.9056 103.895 45.5052C103.486 45.1315 102.951 44.9259 102.396 44.9291C101.842 44.9324 101.309 45.1444 100.904 45.5228C100.508 45.9176 100.286 46.4528 100.284 47.0114C100.29 47.5728 100.514 48.11 100.909 48.5091C101.107 48.7048 101.341 48.8594 101.598 48.9644C101.855 49.0695 102.131 49.1229 102.409 49.1213C102.687 49.1196 102.961 49.0631 103.217 48.955C103.473 48.8469 103.707 48.6895 103.902 48.4914Z" fill="white"/>
</g>
</svg>
