<svg width="134" height="134" viewBox="0 0 134 134" fill="none" xmlns="http://www.w3.org/2000/svg">
<path d="M30.3966 43.2107H50.3004" stroke="white" stroke-width="2" stroke-linecap="round" stroke-linejoin="round"/>
<path d="M50.3003 36.8091H32.7087" stroke="white" stroke-width="2" stroke-linecap="round" stroke-linejoin="round"/>
<path d="M32.7087 49.6123H50.3003" stroke="white" stroke-width="2" stroke-linecap="round" stroke-linejoin="round"/>
<path d="M78.3128 35.5962H68.3987C63.3537 35.5962 62.9208 30.407 55.238 30.407H36.0576" stroke="white" stroke-width="2" stroke-linecap="round" stroke-linejoin="round"/>
<path d="M71.9111 50.816H68.3918C63.3467 50.816 62.9138 56.0053 55.2311 56.0053H42.1477" stroke="white" stroke-width="2" stroke-linecap="round" stroke-linejoin="round"/>
<path d="M43.2003 103.589V83.6852" stroke="white" stroke-width="2" stroke-linecap="round" stroke-linejoin="round"/>
<path d="M36.7982 83.6852V101.377" stroke="white" stroke-width="2" stroke-linecap="round" stroke-linejoin="round"/>
<path d="M49.6019 101.377V83.6852" stroke="white" stroke-width="2" stroke-linecap="round" stroke-linejoin="round"/>
<path d="M35.5859 55.6746V65.5904C35.5859 70.6337 30.3966 71.0666 30.3966 78.7494V97.9298" stroke="white" stroke-width="2" stroke-linecap="round" stroke-linejoin="round"/>
<path d="M50.8143 62.0779V65.5973C50.8143 70.6405 56.0036 71.0734 56.0036 78.7562V91.8396" stroke="white" stroke-width="2" stroke-linecap="round" stroke-linejoin="round"/>
<path d="M103.6 90.787H83.6958" stroke="white" stroke-width="2" stroke-linecap="round" stroke-linejoin="round"/>
<path d="M83.6958 97.1891H101.238" stroke="white" stroke-width="2" stroke-linecap="round" stroke-linejoin="round"/>
<path d="M101.238 84.3854H83.6958" stroke="white" stroke-width="2" stroke-linecap="round" stroke-linejoin="round"/>
<path d="M55.6852 98.4014H65.5993C70.6443 98.4014 71.0772 103.591 78.76 103.591H97.9404" stroke="white" stroke-width="2" stroke-linecap="round" stroke-linejoin="round"/>
<path d="M62.0851 83.173H65.6045C70.6495 83.173 71.0824 77.9855 78.7651 77.9855H91.8378" stroke="white" stroke-width="2" stroke-linecap="round" stroke-linejoin="round"/>
<path d="M90.7766 30.407V50.3108" stroke="white" stroke-width="2" stroke-linecap="round" stroke-linejoin="round"/>
<path d="M97.1782 50.311V32.5822" stroke="white" stroke-width="2" stroke-linecap="round" stroke-linejoin="round"/>
<path d="M84.375 32.5822V50.311" stroke="white" stroke-width="2" stroke-linecap="round" stroke-linejoin="round"/>
<path d="M98.3911 78.3232V68.4129C98.3911 63.3679 103.58 62.9368 103.58 55.2522V36.0714" stroke="white" stroke-width="2" stroke-linecap="round" stroke-linejoin="round"/>
<path d="M83.1627 71.9233V68.4039C83.1627 63.3589 77.9734 62.9278 77.9734 55.2432V42.1603" stroke="white" stroke-width="2" stroke-linecap="round" stroke-linejoin="round"/>
</svg>
