<svg width="134" height="134" viewBox="0 0 134 134" fill="none" xmlns="http://www.w3.org/2000/svg">
<mask id="mask0_30_4485" style="mask-type:luminance" maskUnits="userSpaceOnUse" x="0" y="0" width="134" height="134">
<path d="M134 0H0V134H134V0Z" fill="white"/>
</mask>
<g mask="url(#mask0_30_4485)">
<path d="M86.5201 114.084H45.0656C44.7259 114.084 44.3998 113.949 44.1596 113.709C43.9194 113.468 43.7845 113.142 43.7845 112.803V106.033C43.7845 105.694 43.9194 105.368 44.1596 105.128C44.3998 104.887 44.7259 104.752 45.0656 104.752H86.5201C86.8598 104.752 87.1859 104.887 87.4261 105.128C87.6663 105.368 87.8011 105.694 87.8011 106.033V112.803C87.8011 113.142 87.6663 113.468 87.4261 113.709C87.1859 113.949 86.8598 114.084 86.5201 114.084ZM46.3467 111.522H85.2355V107.314H46.3467V111.522Z" fill="white"/>
<path d="M86.5201 107.314H45.0656C44.7259 107.314 44.3998 107.18 44.1596 106.939C43.9194 106.699 43.7845 106.373 43.7845 106.033V99.2656C43.7845 98.9258 43.9194 98.5998 44.1596 98.3595C44.3998 98.1193 44.7259 97.9845 45.0656 97.9845H86.5201C86.8598 97.9845 87.1859 98.1193 87.4261 98.3595C87.6663 98.5998 87.8011 98.9258 87.8011 99.2656V106.033C87.8011 106.373 87.6663 106.699 87.4261 106.939C87.1859 107.18 86.8598 107.314 86.5201 107.314ZM46.3467 104.752H85.2355V100.547H46.3467V104.752Z" fill="white"/>
<path d="M86.5201 100.547H45.0656C44.7259 100.547 44.3998 100.412 44.1596 100.171C43.9194 99.931 43.7845 99.6054 43.7845 99.2657V92.498C43.7845 92.1583 43.9194 91.8322 44.1596 91.592C44.3998 91.3517 44.7259 91.2169 45.0656 91.2169H86.5201C86.8598 91.2169 87.1859 91.3517 87.4261 91.592C87.6663 91.8322 87.8011 92.1583 87.8011 92.498V99.2657C87.8011 99.6054 87.6663 99.931 87.4261 100.171C87.1859 100.412 86.8598 100.547 86.5201 100.547ZM46.3467 97.9846H85.2355V93.7791H46.3467V97.9846Z" fill="white"/>
<path d="M86.5201 93.7791H45.0656C44.7259 93.7791 44.3998 93.6438 44.1596 93.4036C43.9194 93.1633 43.7845 92.8377 43.7845 92.498V85.7303C43.7845 85.3906 43.9194 85.0645 44.1596 84.8243C44.3998 84.584 44.7259 84.4492 45.0656 84.4492H86.5201C86.8598 84.4492 87.1859 84.584 87.4261 84.8243C87.6663 85.0645 87.8011 85.3906 87.8011 85.7303V92.498C87.8011 92.8377 87.6663 93.1633 87.4261 93.4036C87.1859 93.6438 86.8598 93.7791 86.5201 93.7791ZM46.3467 91.2169H85.2355V87.011H46.3467V91.2169Z" fill="white"/>
<path d="M86.5201 87.011H45.0656C44.8974 87.011 44.7309 86.9779 44.5755 86.9135C44.42 86.8491 44.2786 86.7549 44.1596 86.636C44.0406 86.517 43.9464 86.376 43.8821 86.2205C43.8177 86.0651 43.7845 85.8986 43.7845 85.7303V78.9605C43.7845 78.6208 43.9194 78.2952 44.1596 78.0549C44.3998 77.8147 44.7259 77.6794 45.0656 77.6794H86.5201C86.8598 77.6794 87.1859 77.8147 87.4261 78.0549C87.6663 78.2952 87.8011 78.6208 87.8011 78.9605V85.7303C87.8011 85.8986 87.768 86.0651 87.7036 86.2205C87.6392 86.376 87.5451 86.517 87.4261 86.636C87.3071 86.7549 87.1657 86.8491 87.0102 86.9135C86.8548 86.9779 86.6883 87.011 86.5201 87.011ZM46.3467 84.4492H85.2355V80.2416H46.3467V84.4492Z" fill="white"/>
<path d="M92.8654 80.2416H51.4093C51.2411 80.2416 51.0744 80.2085 50.9191 80.1441C50.7638 80.0797 50.6229 79.9851 50.5041 79.8661C50.3853 79.7471 50.2907 79.6061 50.2265 79.4507C50.1624 79.2953 50.1297 79.1286 50.1299 78.9605V72.1928C50.1297 72.0247 50.1624 71.8581 50.2265 71.7027C50.2907 71.5472 50.3853 71.4062 50.5041 71.2872C50.6229 71.1682 50.7638 71.0737 50.9191 71.0093C51.0744 70.9449 51.2411 70.9117 51.4093 70.9117H92.8654C93.0336 70.9117 93.2006 70.9449 93.356 71.0093C93.5114 71.0736 93.6525 71.1678 93.7714 71.2868C93.8904 71.4057 93.9846 71.5472 94.049 71.7027C94.1133 71.8581 94.1465 72.0246 94.1465 72.1928V78.9605C94.1465 79.3003 94.0117 79.6263 93.7714 79.8665C93.5312 80.1068 93.2051 80.2416 92.8654 80.2416ZM52.6904 77.6794H91.5791V73.4739H52.6904V77.6794Z" fill="white"/>
<path d="M80.1747 73.4739H38.7199C38.3801 73.4739 38.0545 73.3391 37.8143 73.0989C37.574 72.8586 37.4392 72.5326 37.4392 72.1928V65.4217C37.4392 65.082 37.574 64.7559 37.8143 64.5157C38.0545 64.2754 38.3801 64.1406 38.7199 64.1406H80.1747C80.5145 64.1406 80.8405 64.2754 81.0808 64.5157C81.321 64.7559 81.4558 65.082 81.4558 65.4217V72.1894C81.4563 72.3579 81.4233 72.5246 81.3591 72.6804C81.295 72.8363 81.2006 72.9782 81.0816 73.0976C80.9626 73.2169 80.8214 73.3114 80.6658 73.376C80.5101 73.4406 80.3432 73.4739 80.1747 73.4739ZM40.001 70.9117H78.8902V66.7045H40.001V70.9117Z" fill="white"/>
<path d="M86.5201 66.7046H45.0656C44.8975 66.7048 44.7309 66.6717 44.5755 66.6075C44.42 66.5433 44.2786 66.4492 44.1596 66.3304C44.0406 66.2116 43.9465 66.0703 43.8821 65.915C43.8177 65.7597 43.7845 65.5934 43.7845 65.4252V58.6554C43.7845 58.3157 43.9194 57.99 44.1596 57.7498C44.3998 57.5096 44.7259 57.3748 45.0656 57.3748H86.5201C86.8598 57.3748 87.1859 57.5096 87.4261 57.7498C87.6663 57.99 87.8011 58.3157 87.8011 58.6554V65.4252C87.8011 65.5934 87.768 65.7597 87.7036 65.915C87.6392 66.0703 87.5446 66.2116 87.4257 66.3304C87.3067 66.4492 87.1656 66.5433 87.0102 66.6075C86.8548 66.6717 86.6882 66.7048 86.5201 66.7046ZM46.3467 64.1441H85.2355V59.9365H46.3467V64.1441Z" fill="white"/>
<path d="M66.6429 50.2879C65.0003 50.3255 63.3833 49.8746 61.9971 48.9927C60.9348 48.362 60.0506 47.4714 59.4276 46.4047C58.8045 45.338 58.4631 44.1307 58.4356 42.8956C58.4356 42.7812 58.4199 42.6757 58.4111 42.5824C58.3861 42.2506 58.4911 41.9218 58.7041 41.6661C58.917 41.4104 59.2213 41.2479 59.5521 41.2124C59.883 41.177 60.2144 41.2714 60.4767 41.4762C60.7389 41.681 60.9116 41.98 60.9574 42.3096C60.9715 42.4293 60.9799 42.5631 60.9905 42.7092C60.9925 43.5542 61.2182 44.3834 61.6448 45.1129C62.0713 45.8423 62.6836 46.4457 63.4191 46.8618C64.3461 47.3341 65.3584 47.6151 66.3963 47.6879C67.4341 47.7608 68.4764 47.624 69.4602 47.2858C69.5093 47.2691 69.5592 47.2551 69.6098 47.2437C70.2384 47.048 70.8157 46.7152 71.3007 46.2698C71.7857 45.8244 72.1663 45.2772 72.4147 44.6673C72.764 44.0009 72.8843 43.2381 72.7571 42.4965C72.6299 41.7549 72.262 41.0761 71.7105 40.5641C69.5063 39.3593 67.0856 38.6025 64.5876 38.3379C59.9508 37.4686 58.8632 34.1606 58.9301 32.4643C58.8867 30.6949 59.5254 28.9767 60.7142 27.6655C61.5316 26.8978 62.5049 26.3152 63.5677 25.9578C64.6306 25.6004 65.758 25.4765 66.8731 25.5944C68.0033 25.5564 69.1291 25.7548 70.1781 26.1769C71.2272 26.599 72.1766 27.2356 72.9654 28.0457C74.1301 29.4199 74.7277 31.1859 74.6371 32.9849C74.5975 33.3143 74.4319 33.6152 74.1748 33.8248C73.9177 34.0344 73.589 34.1364 73.2584 34.1088C72.9279 34.0812 72.621 33.9264 72.4022 33.677C72.1834 33.4277 72.07 33.1032 72.0856 32.7719C72.1194 31.6608 71.7435 30.5762 71.0296 29.7242C70.4659 29.189 69.7996 28.7739 69.0706 28.5041C68.3416 28.2343 67.5653 28.1156 66.7889 28.1548C66.0342 28.0617 65.2683 28.1279 64.5408 28.3494C63.8133 28.571 63.1401 28.943 62.5654 29.4411C61.8535 30.2515 61.4719 31.2995 61.4957 32.3779C61.5003 32.4365 61.5003 32.4955 61.4957 32.554C61.4869 32.8039 61.5152 35.1616 65.0645 35.8285C70.1552 36.7823 72.001 37.6835 73.1343 38.4401C74.1819 39.2858 74.9138 40.46 75.2114 41.7731C75.5091 43.0861 75.3548 44.4609 74.7741 45.6756C74.3688 46.6427 73.7538 47.5078 72.9732 48.2078C72.1925 48.9077 71.2659 49.4252 70.2606 49.723C69.0905 50.0947 67.8706 50.2853 66.6429 50.2879Z" fill="white"/>
<path d="M66.8275 28.1654H66.8116C66.6433 28.1633 66.4773 28.1282 66.3227 28.0619C66.168 27.9956 66.0277 27.8996 65.9102 27.7792C65.7928 27.6588 65.7003 27.5161 65.6379 27.3599C65.5754 27.2037 65.5443 27.0367 65.5464 26.8684L65.5867 23.5798C65.5888 23.4115 65.624 23.2455 65.6903 23.0909C65.7566 22.9362 65.853 22.7959 65.9734 22.6784C66.0938 22.5609 66.236 22.4685 66.3923 22.4061C66.5485 22.3436 66.7155 22.3125 66.8837 22.3146C67.052 22.3166 67.218 22.3518 67.3726 22.4181C67.5273 22.4844 67.6676 22.5803 67.7851 22.7008C67.9025 22.8212 67.995 22.9639 68.0574 23.1201C68.1199 23.2763 68.151 23.4433 68.1489 23.6115L68.1086 26.9002C68.1044 27.2372 67.9673 27.5591 67.7275 27.796C67.4877 28.0328 67.1645 28.1654 66.8275 28.1654Z" fill="white"/>
<path d="M66.7872 53.9149H66.7713C66.603 53.9129 66.4366 53.8777 66.282 53.8114C66.1273 53.7451 65.9874 53.6487 65.87 53.5283C65.7525 53.4079 65.66 53.2656 65.5976 53.1094C65.5351 52.9532 65.504 52.7862 65.5061 52.6179L65.5465 49.331C65.5506 48.994 65.6873 48.6721 65.9271 48.4353C66.1669 48.1984 66.4905 48.0658 66.8276 48.0658H66.8435C67.0117 48.0679 67.1777 48.103 67.3324 48.1693C67.487 48.2356 67.6273 48.3316 67.7448 48.452C67.8623 48.5724 67.9547 48.7151 68.0172 48.8713C68.0796 49.0275 68.1108 49.1946 68.1087 49.3628L68.0683 52.6497C68.0641 52.9867 67.927 53.3086 67.6872 53.5455C67.4474 53.7823 67.1242 53.915 66.7872 53.9149Z" fill="white"/>
<path d="M66.9097 50.3163C65.2671 50.3541 63.6505 49.9032 62.2643 49.0211C61.2025 48.3905 60.3183 47.5003 59.6953 46.434C59.0722 45.3676 58.7309 44.16 58.7029 42.9253C58.6941 42.8092 58.6868 42.7054 58.678 42.6121C58.6546 42.4424 58.666 42.2698 58.7106 42.1043C58.7552 41.9389 58.8323 41.784 58.9379 41.649C59.0434 41.5139 59.1752 41.4014 59.3249 41.3182C59.4747 41.2349 59.6396 41.1827 59.81 41.1644C59.9804 41.146 60.1528 41.1618 60.3169 41.2112C60.481 41.2606 60.6331 41.3428 60.765 41.4522C60.8969 41.5616 61.0058 41.6962 61.0846 41.8483C61.1635 42.0004 61.2108 42.1668 61.2243 42.3376C61.2366 42.4573 61.2472 42.5911 61.2578 42.7389C61.2603 43.5833 61.4859 44.4122 61.9121 45.1413C62.3382 45.8703 62.9496 46.4737 63.6842 46.8902C64.6112 47.3634 65.6244 47.6448 66.6627 47.7176C67.701 47.7905 68.7431 47.6533 69.7271 47.3142C69.7762 47.2976 69.8261 47.2832 69.8766 47.2717C70.5054 47.076 71.083 46.7436 71.568 46.2982C72.053 45.8528 72.4332 45.3056 72.6815 44.6958C73.0309 44.0293 73.1511 43.2665 73.0239 42.5249C72.8967 41.7833 72.5293 41.104 71.9778 40.5921C69.7733 39.388 67.3523 38.6317 64.8545 38.3663C60.2177 37.497 59.1305 34.1886 59.1974 32.4922C59.1549 30.7231 59.7935 29.0051 60.9815 27.6935C61.7995 26.9267 62.7727 26.3449 63.8354 25.9875C64.8981 25.6301 66.0253 25.5056 67.1404 25.6223C68.2705 25.5846 69.396 25.7832 70.445 26.2053C71.494 26.6274 72.4433 27.2638 73.2323 28.0737C74.3963 29.4483 74.9943 31.2144 74.9043 33.0134C74.8648 33.3427 74.6987 33.6436 74.4417 33.8532C74.1846 34.0628 73.8563 34.1644 73.5257 34.1368C73.1952 34.1092 72.8883 33.9548 72.6695 33.7055C72.4507 33.4561 72.3369 33.1316 72.3525 32.8003C72.3849 31.6894 72.0096 30.6053 71.2969 29.7526C70.7332 29.2179 70.0669 28.8027 69.3383 28.5329C68.6097 28.2631 67.8335 28.1441 67.0575 28.1828C66.3027 28.0897 65.5369 28.1558 64.8094 28.3774C64.0819 28.599 63.4091 28.971 62.8344 29.4691C62.1234 30.28 61.7419 31.3276 61.7647 32.4059C61.7698 32.4644 61.7698 32.5235 61.7647 32.582C61.7647 32.8319 61.7838 35.19 65.3331 35.8569C70.4256 36.8107 72.2718 37.7115 73.405 38.4681C74.4524 39.314 75.1836 40.4884 75.4809 41.8015C75.7782 43.1145 75.624 44.4895 75.0431 45.7041C74.6378 46.6711 74.0228 47.5358 73.2422 48.2357C72.4615 48.9357 71.5349 49.4536 70.5296 49.7514C69.3589 50.1232 68.138 50.3138 66.9097 50.3163Z" fill="white"/>
<path d="M67.0947 28.1847H67.0793C66.911 28.1826 66.7446 28.1475 66.5899 28.0812C66.4353 28.0149 66.2954 27.9189 66.1779 27.7985C66.0605 27.6781 65.9676 27.5354 65.9051 27.3792C65.8427 27.223 65.812 27.0559 65.8141 26.8877L65.8544 23.599C65.8586 23.2593 65.9975 22.935 66.2407 22.6977C66.4839 22.4604 66.8117 22.3296 67.1514 22.3338C67.4912 22.338 67.8151 22.4768 68.0523 22.7201C68.2896 22.9633 68.4208 23.2911 68.4166 23.6308L68.3758 26.9195C68.3717 27.2565 68.235 27.5784 67.9952 27.8152C67.7554 28.0521 67.4318 28.1847 67.0947 28.1847Z" fill="white"/>
</g>
</svg>
