<svg width="134" height="134" viewBox="0 0 134 134" fill="none" xmlns="http://www.w3.org/2000/svg">
<mask id="mask0_30_4590" style="mask-type:luminance" maskUnits="userSpaceOnUse" x="0" y="0" width="134" height="134">
<path d="M134 0H0V134H134V0Z" fill="white"/>
</mask>
<g mask="url(#mask0_30_4590)">
<path d="M104.441 105.718H77.1482C76.6736 105.718 76.2182 105.53 75.8826 105.194C75.547 104.858 75.3585 104.403 75.3585 103.928V47.1102C75.3585 46.6356 75.547 46.1802 75.8826 45.8446C76.2182 45.5089 76.6736 45.3204 77.1482 45.3204H92.8092C93.2839 45.3204 93.7388 45.5089 94.0745 45.8446C94.4101 46.1802 94.599 46.6356 94.599 47.1102C94.599 47.5848 94.4101 48.0398 94.0745 48.3754C93.7388 48.711 93.2839 48.8995 92.8092 48.8995H78.9393V102.139H102.653V48.8995H97.7257C97.2511 48.8995 96.7961 48.711 96.4605 48.3754C96.1249 48.0398 95.9364 47.5848 95.9364 47.1102C95.9364 46.6356 96.1249 46.1802 96.4605 45.8446C96.7961 45.5089 97.2511 45.3204 97.7257 45.3204H104.437C104.912 45.3204 105.367 45.5089 105.703 45.8446C106.038 46.1802 106.227 46.6356 106.227 47.1102V103.928C106.227 104.402 106.039 104.857 105.704 105.193C105.369 105.528 104.915 105.717 104.441 105.718Z" fill="white"/>
<path d="M69.0956 105.718H44.0377C43.563 105.718 43.1081 105.53 42.7725 105.194C42.4369 104.858 42.2484 104.403 42.2484 103.928V72.1643C42.2484 71.6897 42.4369 71.2347 42.7725 70.8991C43.1081 70.5635 43.563 70.375 44.0377 70.375H58.8017C59.2763 70.375 59.7313 70.5635 60.0669 70.8991C60.4025 71.2347 60.591 71.6897 60.591 72.1643C60.591 72.639 60.4025 73.0943 60.0669 73.43C59.7313 73.7656 59.2763 73.9541 58.8017 73.9541H45.8274V102.139H67.2955V73.9541H65.953C65.4784 73.9541 65.023 73.7656 64.6874 73.43C64.3517 73.0943 64.1632 72.639 64.1632 72.1643C64.1632 71.6897 64.3517 71.2347 64.6874 70.8991C65.023 70.5635 65.4784 70.375 65.953 70.375H69.0853C69.5599 70.375 70.0149 70.5635 70.3505 70.8991C70.6861 71.2347 70.8746 71.6897 70.8746 72.1643V103.928C70.8746 104.401 70.6877 104.855 70.3543 105.19C70.021 105.526 69.5684 105.715 69.0956 105.718Z" fill="white"/>
<path d="M77.1501 48.8909C76.8324 48.8908 76.5201 48.8061 76.2458 48.6456C75.9715 48.4851 75.7447 48.2546 75.5889 47.9776L69.1134 36.4657L63.2819 47.0677C63.171 47.2778 63.0195 47.4641 62.8359 47.615C62.6524 47.7659 62.4406 47.8784 62.213 47.9466C61.9854 48.0149 61.7465 48.0375 61.5102 48.0124C61.2739 47.9873 61.0452 47.9151 60.837 47.8006C60.6288 47.6861 60.4451 47.5313 60.2974 47.3452C60.1496 47.1591 60.0407 46.9454 59.9765 46.7167C59.9122 46.4879 59.894 46.2488 59.9232 46.013C59.9523 45.7771 60.0281 45.5494 60.1462 45.3432L67.5367 31.9204C67.6907 31.6412 67.9166 31.4081 68.1906 31.2451C68.4647 31.0821 68.7769 30.9949 69.0958 30.9929C69.4134 30.993 69.7253 31.0777 69.9993 31.2382C70.2733 31.3987 70.4995 31.6293 70.6549 31.9063L78.7092 46.223C78.862 46.4954 78.941 46.8031 78.9382 47.1153C78.9354 47.4276 78.8509 47.7337 78.6933 48.0033C78.5357 48.273 78.3106 48.4968 78.0399 48.6525C77.7692 48.8082 77.4624 48.8904 77.1501 48.8909Z" fill="white"/>
<path d="M104.442 48.0002C104.152 48.0006 103.866 47.9306 103.609 47.7957C103.352 47.6608 103.132 47.4652 102.968 47.226L94.018 34.2518C93.7485 33.8609 93.6452 33.3792 93.731 32.9123C93.8168 32.4453 94.0847 32.0313 94.4755 31.7618C94.8664 31.4923 95.3481 31.389 95.8151 31.4748C96.282 31.5606 96.696 31.8284 96.9656 32.2193L105.913 45.1953C106.098 45.4637 106.207 45.7776 106.226 46.103C106.246 46.4285 106.176 46.753 106.025 47.0417C105.873 47.3304 105.646 47.5727 105.367 47.7416C105.088 47.9105 104.769 47.9997 104.442 48.0002Z" fill="white"/>
<path d="M95.0441 34.1253H69.0956C68.8605 34.1255 68.6276 34.0794 68.4104 33.9895C68.1931 33.8996 67.9958 33.7678 67.8295 33.6016C67.6633 33.4353 67.5319 33.238 67.442 33.0207C67.3522 32.8035 67.306 32.571 67.3063 32.3359V25.1773C67.3063 24.7027 67.4948 24.2477 67.8304 23.9121C68.166 23.5765 68.621 23.3876 69.0956 23.3876H95.0441C95.5187 23.3876 95.9737 23.5765 96.3093 23.9121C96.6449 24.2477 96.8334 24.7027 96.8334 25.1773V32.3359C96.8337 32.571 96.7875 32.8035 96.6977 33.0207C96.6078 33.238 96.4764 33.4353 96.3102 33.6016C96.1439 33.7678 95.9466 33.8996 95.7293 33.9895C95.5121 34.0794 95.2792 34.1255 95.0441 34.1253ZM70.8854 30.5462H93.2543V26.9671H70.8854V30.5462Z" fill="white"/>
<path d="M59.6992 57.3898H35.5387C35.0641 57.3898 34.6087 57.2013 34.2731 56.8657C33.9375 56.5301 33.749 56.0751 33.749 55.6005V48.4419C33.7494 47.9726 33.9337 47.5221 34.2628 47.1874C34.5919 46.8528 35.0394 46.6609 35.5086 46.6526L59.6691 46.2054C59.9068 46.2012 60.1429 46.2445 60.3638 46.3325C60.5847 46.4206 60.7861 46.5517 60.9558 46.7183C61.1255 46.8849 61.2602 47.0834 61.3523 47.3026C61.4444 47.5218 61.4917 47.7573 61.4919 47.9951V55.6005C61.4919 55.8358 61.4459 56.0688 61.3557 56.2862C61.2656 56.5035 61.1331 56.7008 60.9665 56.867C60.8 57.0332 60.6024 57.1652 60.3848 57.2549C60.1673 57.3447 59.9345 57.3903 59.6992 57.3898ZM37.3298 53.8073H57.918V49.8145L37.3298 50.1964V53.8073Z" fill="white"/>
<path d="M42.6986 105.718H25.2495C24.7749 105.718 24.3199 105.529 23.9843 105.194C23.6487 104.858 23.4602 104.403 23.4602 103.928V72.1641C23.4607 71.8104 23.5652 71.4647 23.7609 71.17L34.0514 55.7358C34.2219 55.48 34.4553 55.2724 34.7293 55.1331C35.0033 54.9937 35.3089 54.9273 35.616 54.9402C35.9232 54.9531 36.2216 55.0451 36.483 55.207C36.7443 55.3688 36.9597 55.595 37.1081 55.8643L45.6092 71.3002C45.8381 71.716 45.8926 72.2057 45.7604 72.6616C45.6283 73.1175 45.3201 73.5024 44.9042 73.7313C44.4884 73.9603 43.9987 74.0147 43.5428 73.8826C43.0869 73.7504 42.7024 73.4426 42.4735 73.0268L35.3944 60.181L27.0393 72.7114V102.146H42.7003C43.175 102.146 43.6303 102.334 43.966 102.67C44.3016 103.006 44.4901 103.461 44.4901 103.936C44.4901 104.41 44.3016 104.865 43.966 105.201C43.6303 105.536 43.175 105.725 42.7003 105.725L42.6986 105.718Z" fill="white"/>
<path d="M69.3213 73.9456C69.0065 73.9459 68.6968 73.8631 68.4243 73.7055C68.1518 73.5479 67.9259 73.3212 67.7691 73.0482L58.3723 56.7182C58.1354 56.3068 58.0718 55.8182 58.1953 55.3598C58.3187 54.9014 58.619 54.5106 59.0304 54.2738C59.4418 54.0369 59.9305 53.9733 60.3889 54.0968C60.8472 54.2202 61.2376 54.5205 61.4745 54.9319L70.8696 71.2618C71.0259 71.5339 71.108 71.8422 71.1076 72.1559C71.1073 72.4696 71.0247 72.7778 70.8679 73.0495C70.7111 73.3212 70.4855 73.5469 70.2141 73.7042C69.9426 73.8614 69.635 73.9448 69.3213 73.9456Z" fill="white"/>
<path d="M78.0453 106.158H77.9542L69.0058 105.711C68.7674 105.705 68.5328 105.651 68.3154 105.553C68.0981 105.454 67.9028 105.314 67.7406 105.139C67.5785 104.964 67.4528 104.759 67.3712 104.534C67.2896 104.31 67.2538 104.072 67.2655 103.834C67.2772 103.596 67.3362 103.362 67.4395 103.147C67.5427 102.932 67.688 102.74 67.8665 102.582C68.0451 102.424 68.2532 102.303 68.4791 102.227C68.705 102.15 68.9441 102.12 69.182 102.137L78.1299 102.584C78.5981 102.605 79.0397 102.808 79.3595 103.151C79.6792 103.493 79.8517 103.947 79.8402 104.416C79.8287 104.884 79.6338 105.33 79.2976 105.656C78.9614 105.983 78.5104 106.164 78.0418 106.161L78.0453 106.158Z" fill="white"/>
</g>
</svg>
