<svg width="134" height="134" viewBox="0 0 134 134" fill="none" xmlns="http://www.w3.org/2000/svg">
<mask id="mask0_30_4520" style="mask-type:luminance" maskUnits="userSpaceOnUse" x="0" y="0" width="134" height="134">
<path d="M134 0H0V134H134V0Z" fill="white"/>
</mask>
<g mask="url(#mask0_30_4520)">
<path d="M68.7246 75.6645C63.5317 75.6607 58.5008 73.8569 54.489 70.5598C50.4771 67.2627 47.7322 62.6763 46.7225 57.5826C45.7128 52.4888 46.5005 47.2026 48.9513 42.6244C51.4021 38.0462 55.3645 34.4596 60.1633 32.4753C64.962 30.4909 70.3004 30.2317 75.2688 31.7419C80.2372 33.2521 84.5282 36.4381 87.4109 40.7573C90.2936 45.0765 91.5896 50.2618 91.0781 55.4294C90.5665 60.597 88.2791 65.4272 84.6055 69.0974C82.5215 71.1842 80.0456 72.8388 77.3202 73.9658C74.5948 75.0928 71.6738 75.6699 68.7246 75.6645ZM68.7246 33.1927C64.0918 33.1957 59.6034 34.805 56.024 37.7462C52.4446 40.6873 49.9956 44.7782 49.0944 49.3225C48.1932 53.8667 48.8957 58.5829 51.0817 62.6674C53.2678 66.752 56.8025 69.9521 61.0835 71.7228C65.3645 73.4935 70.1269 73.7253 74.5595 72.3784C78.9921 71.0314 82.8205 68.1892 85.3926 64.3361C87.9647 60.4829 89.1214 55.8573 88.6654 51.2471C88.2094 46.6369 86.1689 42.3272 82.8918 39.0526C81.0328 37.1908 78.824 35.7149 76.3927 34.7093C73.9614 33.7036 71.3556 33.1881 68.7246 33.1927Z" fill="white"/>
<path d="M68.5187 64.4891C66.9967 64.5247 65.4984 64.1068 64.2144 63.2887C63.2302 62.7047 62.4107 61.8797 61.8335 60.8915C61.2563 59.9033 60.9402 58.7844 60.915 57.6402C60.915 57.5346 60.9006 57.4377 60.8918 57.3515C60.8749 57.1933 60.8894 57.0337 60.9343 56.8811C60.9793 56.7285 61.0539 56.586 61.1538 56.4622C61.2538 56.3384 61.3772 56.2355 61.5169 56.1593C61.6565 56.0832 61.8098 56.0357 61.968 56.0189C62.1261 56.002 62.2862 56.0164 62.4388 56.0614C62.5914 56.1063 62.7335 56.1806 62.8572 56.2805C62.981 56.3804 63.084 56.5038 63.1601 56.6435C63.2362 56.7832 63.2842 56.9364 63.301 57.0946C63.3116 57.2037 63.3223 57.3286 63.3328 57.4641C63.3342 58.2389 63.5407 58.9999 63.9317 59.6688C64.3227 60.3377 64.8842 60.8908 65.5586 61.2721C66.4104 61.7039 67.3397 61.9612 68.2923 62.0282C69.2448 62.0953 70.2015 61.9712 71.1053 61.6631C71.1521 61.647 71.1993 61.6331 71.2475 61.6223C71.8231 61.4423 72.352 61.1374 72.7959 60.7291C73.2397 60.3208 73.5876 59.8197 73.8149 59.2611C74.1352 58.6529 74.2466 57.9558 74.1315 57.278C74.0164 56.6003 73.6814 55.9794 73.1782 55.5111C71.1471 54.4026 68.9172 53.7059 66.6163 53.461C62.3192 52.655 61.3092 49.5895 61.3708 48.0058C61.3318 46.3658 61.9238 44.7737 63.0248 43.5576C63.7827 42.8482 64.6839 42.3095 65.6678 41.9783C66.6516 41.6471 67.6952 41.531 68.7279 41.6376C69.7745 41.603 70.817 41.7873 71.7884 42.1785C72.7599 42.5697 73.639 43.1591 74.3695 43.9094C75.4472 45.183 76.0011 46.8184 75.9196 48.4848C75.893 48.8049 75.7403 49.1012 75.4951 49.3088C75.2499 49.5163 74.9324 49.6181 74.6123 49.5915C74.2921 49.5648 73.9954 49.4122 73.7878 49.167C73.5803 48.9218 73.479 48.6043 73.5056 48.2841C73.5361 47.267 73.1922 46.2736 72.5394 45.493C72.0222 45.002 71.4107 44.6214 70.7419 44.3743C70.073 44.1271 69.3609 44.0188 68.6488 44.0555C67.9601 43.97 67.2609 44.029 66.5961 44.2286C65.9314 44.4283 65.3156 44.7641 64.7879 45.215C64.1272 45.9624 63.7724 46.9311 63.7938 47.9284C63.7964 47.9788 63.7964 48.0297 63.7938 48.0801C63.7938 48.3053 63.8148 50.4608 67.0631 51.0715C69.6886 51.3573 72.2274 52.1788 74.5225 53.4854C75.4947 54.2698 76.174 55.3592 76.4506 56.5773C76.7271 57.7955 76.5846 59.0717 76.0463 60.199C75.6713 61.0967 75.1015 61.8997 74.3777 62.5498C73.6539 63.1999 72.7945 63.6808 71.8619 63.9576C70.7808 64.3031 69.6536 64.4823 68.5187 64.4891Z" fill="white"/>
<path d="M68.6877 44.066H68.6735C68.514 44.064 68.3565 44.0303 68.2099 43.9672C68.0634 43.9041 67.9306 43.8127 67.8194 43.6983C67.7083 43.5838 67.6209 43.4488 67.5621 43.3005C67.5033 43.1522 67.4745 42.9934 67.477 42.8339L67.514 39.7987C67.5177 39.4801 67.6469 39.1755 67.8736 38.9515C68.1002 38.7275 68.4059 38.6018 68.7246 38.6018H68.7405C68.9 38.6039 69.0575 38.6376 69.2041 38.7006C69.3506 38.7637 69.483 38.8551 69.5941 38.9696C69.7053 39.084 69.7931 39.2191 69.8519 39.3674C69.9107 39.5157 69.9395 39.6744 69.937 39.8339L69.9 42.8691C69.8959 43.1879 69.7661 43.4924 69.5392 43.7163C69.3122 43.9403 69.0065 44.0661 68.6877 44.066Z" fill="white"/>
<path d="M68.6525 67.827H68.6366C68.477 67.825 68.3196 67.7913 68.173 67.7282C68.0265 67.6652 67.8937 67.5737 67.7825 67.4593C67.6713 67.3449 67.584 67.2098 67.5252 67.0615C67.4664 66.9132 67.4375 66.7549 67.4401 66.5953L67.4788 63.5614C67.494 63.2478 67.6303 62.9522 67.859 62.737C68.0876 62.5218 68.3905 62.4041 68.7044 62.4079C69.0184 62.4118 69.3189 62.5373 69.5422 62.7581C69.7655 62.9788 69.8943 63.2776 69.9018 63.5915L69.8648 66.625C69.862 66.9447 69.7332 67.2505 69.5061 67.4756C69.279 67.7007 68.9722 67.827 68.6525 67.827Z" fill="white"/>
<path d="M68.7649 64.5067C67.2429 64.5423 65.7446 64.1244 64.4606 63.3064C63.4765 62.7222 62.6574 61.8973 62.0802 60.9091C61.503 59.9209 61.1867 58.802 61.1612 57.6578C61.1612 57.5522 61.1473 57.4553 61.1385 57.3709C61.1042 57.0514 61.198 56.7317 61.3997 56.4816C61.6013 56.2314 61.8943 56.0716 62.2138 56.0373C62.5332 56.003 62.8529 56.0969 63.1031 56.2985C63.3532 56.5002 63.513 56.7928 63.5473 57.1122C63.5596 57.2213 63.5685 57.3462 63.5791 57.4817C63.5808 58.2564 63.7878 59.0172 64.1788 59.686C64.5698 60.3549 65.1306 60.9081 65.8049 61.2898C66.6563 61.7246 67.587 61.9833 68.5407 62.0502C69.4943 62.117 70.4513 61.9904 71.355 61.6786C71.4004 61.6625 71.4471 61.6496 71.4942 61.6399C72.0699 61.4601 72.5987 61.1555 73.0425 60.7472C73.4864 60.3389 73.8344 59.837 74.0616 59.2783C74.3819 58.6701 74.4929 57.9734 74.3778 57.2957C74.2626 56.6179 73.9276 55.9971 73.4245 55.5287C71.3935 54.4202 69.1635 53.7239 66.8626 53.4803C62.5654 52.6744 61.5572 49.6092 61.6188 48.0255C61.5776 46.385 62.1692 44.7914 63.2711 43.5752C64.0289 42.8657 64.9306 42.3272 65.9144 41.9959C66.8983 41.6647 67.9415 41.5485 68.9741 41.6553C70.0207 41.621 71.0633 41.8054 72.0347 42.1966C73.006 42.5877 73.885 43.1771 74.6158 43.927C75.6943 45.2002 76.2486 46.8359 76.1662 48.5024C76.1396 48.8226 75.987 49.1188 75.7418 49.3264C75.4966 49.534 75.1787 49.6357 74.8585 49.6091C74.5384 49.5825 74.2421 49.4298 74.0345 49.1846C73.8269 48.9394 73.7252 48.6219 73.7518 48.3018C73.7826 47.2848 73.4394 46.2916 72.7874 45.5106C72.2699 45.0196 71.6581 44.639 70.989 44.3919C70.3199 44.1447 69.6075 44.0364 68.8951 44.0731C68.2062 43.9871 67.5068 44.0458 66.842 44.2458C66.1771 44.4458 65.5613 44.7825 65.0342 45.2344C64.3745 45.9816 64.0198 46.9495 64.0401 47.9461C64.0426 47.9965 64.0426 48.0469 64.0401 48.0973C64.0401 48.3243 64.0614 50.4785 67.3098 51.0891C69.9353 51.375 72.4737 52.1964 74.7687 53.5031C75.7413 54.2875 76.4211 55.3773 76.6977 56.5958C76.9742 57.8144 76.8317 59.0909 76.293 60.2183C75.9178 61.1155 75.3477 61.9179 74.6239 62.5674C73.9002 63.2169 73.0406 63.6973 72.1081 63.9735C71.0275 64.321 69.9001 64.5008 68.7649 64.5067Z" fill="white"/>
<path d="M68.9355 44.0836H68.9196C68.7601 44.0815 68.6026 44.0479 68.4561 43.9848C68.3096 43.9217 68.1772 43.8303 68.066 43.7159C67.9548 43.6014 67.867 43.4663 67.8082 43.318C67.7494 43.1697 67.7206 43.011 67.7232 42.8515L67.7601 39.8163C67.7693 39.4957 67.903 39.1912 68.133 38.9678C68.363 38.7444 68.6711 38.6193 68.9918 38.6194C69.1513 38.6214 69.3088 38.6551 69.4554 38.7182C69.6019 38.7813 69.7347 38.8727 69.8459 38.9871C69.957 39.1016 70.0444 39.2366 70.1032 39.385C70.162 39.5333 70.1913 39.692 70.1887 39.8515L70.1518 42.885C70.1481 43.2047 70.0182 43.5099 69.7905 43.7343C69.5627 43.9588 69.2553 44.0846 68.9355 44.0836Z" fill="white"/>
<path d="M78.6613 96.7174C78.4121 96.7178 78.169 96.6413 77.9649 96.4983C77.7608 96.3553 77.6059 96.1526 77.5211 95.9183C77.3839 95.5382 74.2109 86.5219 79.2911 79.2825C83.224 73.6744 90.9052 70.8359 102.123 70.8359C102.385 70.8357 102.64 70.9203 102.85 71.0774C103.06 71.2344 103.213 71.4557 103.286 71.7072C103.401 72.0961 106.012 81.308 100.585 88.5526C96.5238 93.9707 89.1473 96.7174 78.6613 96.7174ZM101.166 73.2624C91.3224 73.412 84.6355 75.9022 81.2815 80.6534C77.7252 85.7055 78.9623 92.063 79.5571 94.2819C88.7567 94.1359 95.1759 91.7182 98.6425 87.0903C102.456 82.01 101.632 75.5764 101.166 73.2624Z" fill="white"/>
<path d="M68.5343 106.844C68.2946 106.845 68.0606 106.774 67.8611 106.641C67.6617 106.508 67.5061 106.319 67.4143 106.097C67.3226 105.876 67.2987 105.632 67.3456 105.397C67.3925 105.162 67.508 104.946 67.6777 104.777L91.2079 81.2463C91.4349 81.019 91.7433 80.8912 92.0645 80.891C92.3858 80.8908 92.6939 81.0184 92.9212 81.2454C93.1485 81.4725 93.2763 81.7804 93.2765 82.1016C93.2766 82.4229 93.1491 82.731 92.922 82.9583L69.3914 106.491C69.1639 106.717 68.8556 106.844 68.5343 106.844Z" fill="white"/>
<path d="M58.4072 96.7174C47.9195 96.7174 40.5429 93.9704 36.4833 88.5488C31.0565 81.3042 33.6676 72.0922 33.7802 71.7033C33.8537 71.4518 34.007 71.231 34.2167 71.074C34.4264 70.9169 34.6816 70.8323 34.9436 70.8325C46.1598 70.8325 53.8428 73.6745 57.7774 79.2791C62.8576 86.5184 59.6849 95.5348 59.5371 95.9149C59.454 96.1485 59.3006 96.3509 59.0985 96.4944C58.8963 96.638 58.6551 96.7159 58.4072 96.7174ZM35.9042 73.2624C35.4432 75.5834 34.6249 82.0434 38.4346 87.1113C41.9047 91.7287 48.319 94.1411 57.508 94.2871C58.1028 92.0681 59.3382 85.7106 55.7819 80.6586C52.4332 75.8986 45.7479 73.412 35.9042 73.2624Z" fill="white"/>
<path d="M68.5341 106.844C68.3751 106.845 68.2176 106.814 68.0706 106.754C67.9235 106.694 67.7901 106.605 67.6775 106.492L44.1469 82.96C43.9198 82.7329 43.792 82.4253 43.792 82.1042C43.792 81.7831 43.9198 81.475 44.1469 81.248C44.3739 81.0209 44.682 80.8936 45.0031 80.8936C45.3242 80.8936 45.6318 81.0209 45.8588 81.248L69.3912 104.779C69.5609 104.948 69.6764 105.164 69.7233 105.399C69.7701 105.634 69.7463 105.877 69.6545 106.099C69.5628 106.32 69.4072 106.51 69.2078 106.643C69.0083 106.776 68.7738 106.847 68.5341 106.846V106.844Z" fill="white"/>
</g>
</svg>
