<svg width="134" height="134" viewBox="0 0 134 134" fill="none" xmlns="http://www.w3.org/2000/svg">
<mask id="mask0_30_4625" style="mask-type:luminance" maskUnits="userSpaceOnUse" x="0" y="0" width="134" height="134">
<path d="M134 0H0V134H134V0Z" fill="white"/>
</mask>
<g mask="url(#mask0_30_4625)">
<path d="M46.4134 53.0259H41.8522C41.4788 53.0259 41.1208 52.8779 40.8568 52.6139C40.5928 52.3499 40.4448 51.9918 40.4448 51.6185C40.4448 51.2451 40.5928 50.8871 40.8568 50.6231C41.1208 50.3591 41.4788 50.2107 41.8522 50.2107H46.3661C46.5157 50.1214 46.6428 49.9989 46.7377 49.8528C46.8326 49.7067 46.8924 49.5408 46.913 49.3678C46.9042 49.1501 46.8381 48.9388 46.721 48.7551C46.6038 48.5715 46.4399 48.4222 46.2462 48.3225H35.8149C35.6177 48.3625 35.4352 48.4558 35.2877 48.5927C35.1403 48.7296 35.0334 48.9047 34.9789 49.0984C34.9789 49.8375 35.4542 50.2107 35.7199 50.2107H37.0943C37.4676 50.2107 37.8257 50.3591 38.0897 50.6231C38.3537 50.8871 38.5021 51.2451 38.5021 51.6185C38.5021 51.9918 38.3537 52.3499 38.0897 52.6139C37.8257 52.8779 37.4676 53.0259 37.0943 53.0259H35.7199C34.7297 52.9731 33.8005 52.531 33.135 51.7959C32.4694 51.0608 32.1215 50.0924 32.1671 49.1018C32.2225 48.1583 32.6264 47.2689 33.3004 46.6062C33.9744 45.9436 34.8705 45.5552 35.8149 45.5159H46.2815C47.2307 45.619 48.1078 46.0703 48.7436 46.7828C49.3793 47.4952 49.7287 48.4181 49.7235 49.3729C49.7212 50.2833 49.3815 51.1608 48.7702 51.8354C48.1589 52.5101 47.3192 52.9341 46.4134 53.0259Z" fill="white"/>
<path d="M48.942 111.716H31.905C30.5932 111.714 29.336 111.191 28.4096 110.262C27.4832 109.333 26.9631 108.075 26.9636 106.763V68.5127C26.9595 67.683 27.1192 66.8606 27.4336 66.0927C27.7479 65.3248 28.2107 64.6266 28.7954 64.0379C28.9372 63.9092 29.1037 63.8108 29.2848 63.7487C29.4659 63.6867 29.658 63.6624 29.8488 63.677C30.0397 63.6916 30.2253 63.7449 30.3949 63.8338C30.5644 63.9227 30.7142 64.0455 30.8348 64.1942C30.9554 64.3429 31.0445 64.5147 31.0964 64.699C31.1483 64.8833 31.162 65.0759 31.1368 65.2657C31.1116 65.4555 31.0481 65.6383 30.9499 65.8027C30.8517 65.967 30.721 66.1094 30.5659 66.2216C30.0592 66.8771 29.7813 67.6808 29.7754 68.5092V106.76C29.774 107.326 29.9978 107.87 30.397 108.272C30.7962 108.674 31.3385 108.901 31.905 108.903H48.942C49.5089 108.901 50.0518 108.674 50.4517 108.272C50.8515 107.87 51.0755 107.327 51.0746 106.76V68.5092C51.0743 68.2513 51.0275 67.9956 50.9358 67.7544C50.8576 67.5795 50.816 67.3905 50.8134 67.1989C50.8108 67.0073 50.8474 66.817 50.9208 66.64C50.9942 66.463 51.1029 66.303 51.2404 66.1696C51.3779 66.0361 51.5412 65.9318 51.7203 65.8637C51.8994 65.7956 52.0904 65.7647 52.2818 65.773C52.4733 65.7814 52.6613 65.8288 52.8339 65.9122C53.0064 65.9957 53.16 66.1136 53.2854 66.2585C53.4108 66.4034 53.5051 66.572 53.5629 66.7547C53.7774 67.3165 53.8867 67.913 53.8851 68.5144V106.765C53.8846 108.076 53.364 109.334 52.4373 110.263C51.5107 111.191 50.2536 111.714 48.942 111.716Z" fill="white"/>
<path d="M29.309 67.211C29.0594 67.2101 28.8144 67.1431 28.5993 67.0163C28.3842 66.8896 28.2068 66.708 28.085 66.4901C27.9633 66.2721 27.9015 66.0257 27.9063 65.7761C27.9112 65.5265 27.9824 65.2824 28.1125 65.0694C29.6769 62.5196 33.8597 55.2559 34.4351 52.2979C34.4586 52.1066 34.5213 51.9219 34.619 51.7557C34.7167 51.5896 34.8473 51.4452 35.0031 51.3317C35.1589 51.2182 35.3365 51.138 35.5246 51.0958C35.7127 51.0537 35.9075 51.0506 36.0969 51.0868C36.2862 51.123 36.466 51.1978 36.6253 51.3063C36.7845 51.4149 36.9198 51.5553 37.0227 51.7183C37.1256 51.8814 37.1938 52.0636 37.2233 52.2541C37.2528 52.4446 37.2428 52.6389 37.1941 52.8255C36.404 56.8868 30.7483 66.1393 30.5072 66.5317C30.3824 66.7381 30.2067 66.909 29.9968 67.0279C29.787 67.1469 29.5502 67.2099 29.309 67.211Z" fill="white"/>
<path d="M52.2679 68.7966C51.905 68.7969 51.5559 68.6569 51.2936 68.4061C51.0312 68.1552 50.876 67.8127 50.8601 67.4502C50.3992 66.0204 49.748 64.659 48.9242 63.4028C46.872 60.0951 45.3213 56.5018 44.3227 52.7394C44.2714 52.5552 44.2583 52.3623 44.284 52.1728C44.3097 51.9833 44.3737 51.801 44.4722 51.6371C44.5707 51.4731 44.7015 51.3312 44.8567 51.2195C45.0119 51.1078 45.1881 51.0288 45.3748 50.9875C45.5615 50.9462 45.7549 50.9435 45.9428 50.9793C46.1306 51.0152 46.3093 51.0887 46.4677 51.1959C46.6261 51.303 46.7611 51.4413 46.8643 51.6023C46.9675 51.7633 47.0367 51.9437 47.0679 52.1324C48.0146 55.6219 49.4653 58.9543 51.3739 62.025C52.4887 63.6224 53.2671 65.43 53.6616 67.3376C53.6768 67.7102 53.5436 68.0736 53.2912 68.3481C53.0389 68.6225 52.6877 68.7857 52.3152 68.8017L52.2679 68.7966Z" fill="white"/>
<path d="M47.0009 103.86H46.9412C46.5687 103.844 46.2175 103.681 45.9651 103.406C45.7128 103.132 45.58 102.768 45.5952 102.396C45.5952 102.289 45.8555 81.6616 45.8397 75.6487C45.7902 74.0585 45.4967 72.485 44.9702 70.9836C44.8671 70.6329 44.9046 70.256 45.0746 69.9323C45.2445 69.6087 45.5337 69.3636 45.8809 69.2493C46.2281 69.135 46.6063 69.1603 46.9352 69.3197C47.2641 69.4792 47.5178 69.7604 47.6432 70.1038C48.2614 71.884 48.6015 73.749 48.6515 75.6329C48.6673 81.7689 48.4071 102.438 48.4036 102.508C48.3891 102.871 48.2349 103.214 47.9736 103.466C47.7123 103.717 47.3638 103.859 47.0009 103.86Z" fill="white"/>
<path d="M44.8401 67.3199C44.5526 67.3199 44.2722 67.2319 44.0363 67.0677C43.8004 66.9035 43.6202 66.671 43.5203 66.4014L42.7075 64.1967C42.6347 64.0215 42.5979 63.8334 42.5997 63.6437C42.6014 63.4541 42.6414 63.2668 42.7174 63.093C42.7933 62.9192 42.9037 62.7626 43.0417 62.6324C43.1797 62.5023 43.3428 62.4012 43.5208 62.3356C43.6987 62.27 43.8881 62.2411 44.0775 62.2505C44.267 62.2599 44.4526 62.3077 44.6231 62.3906C44.7937 62.4735 44.9455 62.5898 45.0699 62.733C45.1944 62.8761 45.2887 63.0431 45.347 63.2236L46.1598 65.4283C46.2883 65.7782 46.2729 66.1648 46.1169 66.5032C45.9609 66.8417 45.6772 67.1041 45.3277 67.2336C45.1718 67.2916 45.0064 67.3209 44.8401 67.3199Z" fill="white"/>
<path d="M65.0521 53.0276H60.4926C60.1193 53.0276 59.7612 52.8796 59.4972 52.6156C59.2332 52.3516 59.0848 51.9936 59.0848 51.6202C59.0848 51.2468 59.2332 50.8888 59.4972 50.6248C59.7612 50.3608 60.1193 50.2124 60.4926 50.2124H65.0044C65.1543 50.1238 65.282 50.0017 65.3769 49.8558C65.4718 49.7099 65.5315 49.5441 65.5517 49.3712C65.5431 49.1537 65.477 48.9426 65.3601 48.759C65.2433 48.5754 65.08 48.4259 64.8867 48.3259H54.4553C54.258 48.366 54.0755 48.4597 53.9278 48.5966C53.78 48.7335 53.6726 48.9081 53.6176 49.1018C53.6176 49.8409 54.0929 50.2124 54.3604 50.2124H55.733C56.1064 50.2124 56.4644 50.3608 56.7284 50.6248C56.9924 50.8888 57.1404 51.2468 57.1404 51.6202C57.1404 51.9936 56.9924 52.3516 56.7284 52.6156C56.4644 52.8796 56.1064 53.0276 55.733 53.0276H54.3604C53.37 52.9752 52.4406 52.5332 51.775 51.7981C51.1094 51.0629 50.7615 50.0942 50.8075 49.1035C50.8626 48.1598 51.2663 47.2706 51.9404 46.6079C52.6145 45.9452 53.5108 45.5566 54.4553 45.5176H64.9219C65.8712 45.6208 66.7483 46.072 67.384 46.7845C68.0198 47.497 68.3691 48.4198 68.364 49.3746C68.3612 50.2852 68.021 51.1625 67.4094 51.8371C66.7978 52.5118 65.9581 52.9358 65.0521 53.0276Z" fill="white"/>
<path d="M67.5806 111.719H57.9023C57.529 111.719 57.1709 111.571 56.9069 111.307C56.6429 111.043 56.4945 110.685 56.4945 110.311C56.4945 109.938 56.6429 109.58 56.9069 109.316C57.1709 109.052 57.529 108.903 57.9023 108.903H67.5806C68.1475 108.902 68.6904 108.675 69.0903 108.273C69.4901 107.871 69.7141 107.327 69.7132 106.76V68.5097C69.7136 68.2511 69.6667 67.9948 69.5744 67.7532C69.4634 67.4096 69.4885 67.0365 69.6449 66.711C69.8012 66.3855 70.0767 66.1324 70.4143 66.0043C70.7519 65.8761 71.1258 65.8825 71.4587 66.0223C71.7916 66.1621 72.0583 66.4245 72.2032 66.7552C72.4168 67.3173 72.5262 67.9136 72.5254 68.5149V106.765C72.5254 108.078 72.0047 109.336 71.0776 110.265C70.1506 111.194 68.8928 111.716 67.5806 111.719Z" fill="white"/>
<path d="M52.7954 58.3687C52.5563 58.3678 52.3218 58.3059 52.1132 58.1891C51.9046 58.0723 51.7289 57.9044 51.6032 57.7011C51.4775 57.4977 51.4057 57.2658 51.3944 57.027C51.3832 56.7882 51.4331 56.5504 51.5392 56.3362C52.2586 55.0791 52.7764 53.7171 53.0738 52.2996C53.099 52.1096 53.1627 51.9265 53.2611 51.7621C53.3594 51.5977 53.4902 51.4553 53.6456 51.3433C53.801 51.2312 53.9775 51.1518 54.1646 51.1104C54.3516 51.069 54.5452 51.0663 54.7334 51.1022C54.9215 51.1382 55.1006 51.2121 55.2592 51.3196C55.4178 51.4271 55.5527 51.5663 55.6557 51.7278C55.7588 51.8893 55.8278 52.0701 55.8585 52.2592C55.8893 52.4483 55.8811 52.6417 55.8345 52.8276C55.4865 54.4928 54.886 56.0949 54.0537 57.5786C53.9385 57.8145 53.7597 58.0134 53.5373 58.153C53.315 58.2926 53.0579 58.3674 52.7954 58.3687Z" fill="white"/>
<path d="M70.8993 68.7983C70.5363 68.7986 70.1872 68.6586 69.9249 68.4078C69.6626 68.1569 69.5073 67.8145 69.4914 67.4519C69.0301 66.0223 68.3794 64.6614 67.556 63.4049C65.5027 60.0976 63.951 56.5038 62.9523 52.7412C62.9011 52.5569 62.888 52.364 62.9137 52.1745C62.9394 51.985 63.0034 51.8027 63.1018 51.6388C63.2003 51.4748 63.3311 51.3329 63.4863 51.2212C63.6416 51.1095 63.8182 51.0305 64.0049 50.9892C64.1916 50.9479 64.3845 50.9452 64.5724 50.981C64.7602 51.0169 64.939 51.0904 65.0974 51.1976C65.2558 51.3047 65.3907 51.443 65.4939 51.604C65.5971 51.765 65.6663 51.9454 65.6975 52.1341C66.6445 55.6232 68.0957 58.9551 70.0052 62.025C71.1204 63.6229 71.8988 65.4311 72.2929 67.3393C72.3077 67.7116 72.1745 68.0748 71.9222 68.3489C71.6698 68.623 71.3192 68.7857 70.9469 68.8017L70.8993 68.7983Z" fill="white"/>
<path d="M65.6397 103.86H65.58C65.2075 103.844 64.8563 103.681 64.6039 103.406C64.3515 103.132 64.2183 102.768 64.2336 102.396C64.2336 102.288 64.4943 81.6579 64.4802 75.6486C64.4271 74.0572 64.1304 72.4832 63.6003 70.9818C63.5092 70.6343 63.5544 70.2651 63.7267 69.9498C63.8989 69.6346 64.185 69.3972 64.5266 69.2861C64.8682 69.175 65.2394 69.1986 65.5641 69.3523C65.8888 69.5059 66.1427 69.7781 66.2734 70.1127C66.8922 71.8927 67.2323 73.7574 67.2817 75.6413C67.2975 81.7756 67.0368 102.447 67.0351 102.517C67.0184 102.877 66.8646 103.217 66.605 103.466C66.3455 103.716 65.9999 103.857 65.6397 103.86Z" fill="white"/>
<path d="M63.4788 67.3216C63.1916 67.3212 62.9114 67.2332 62.6758 67.069C62.4402 66.9048 62.2605 66.6724 62.1607 66.4031L61.3462 64.1984C61.2734 64.0232 61.2366 63.8351 61.2383 63.6455C61.2401 63.4558 61.2801 63.2685 61.3561 63.0947C61.432 62.9209 61.5424 62.7643 61.6804 62.6341C61.8184 62.504 61.981 62.4029 62.159 62.3373C62.3369 62.2717 62.5263 62.2428 62.7158 62.2522C62.9052 62.2616 63.0908 62.3094 63.2614 62.3923C63.432 62.4752 63.5842 62.5915 63.7086 62.7347C63.833 62.8778 63.9273 63.0448 63.9857 63.2253L64.8002 65.4301C64.9287 65.7799 64.9133 66.1665 64.7573 66.5049C64.6013 66.8434 64.3175 67.1062 63.9681 67.2357C63.8113 67.2927 63.6456 67.3216 63.4788 67.3216Z" fill="white"/>
<path d="M83.6413 53.0276H79.0802C78.7068 53.0276 78.3488 52.8796 78.0848 52.6156C77.8208 52.3516 77.6728 51.9936 77.6728 51.6202C77.6728 51.2468 77.8208 50.8888 78.0848 50.6248C78.3488 50.3608 78.7068 50.2124 79.0802 50.2124H83.5941C83.7437 50.1235 83.8708 50.0012 83.9657 49.8554C84.0606 49.7095 84.1203 49.544 84.141 49.3712C84.1323 49.1537 84.0662 48.9426 83.9494 48.759C83.8325 48.5754 83.6693 48.4259 83.4759 48.3259H73.0429C72.8457 48.366 72.6632 48.4597 72.5157 48.5966C72.3683 48.7335 72.2614 48.9081 72.2068 49.1018C72.2068 49.8409 72.6822 50.2124 72.9479 50.2124H74.3222C74.6956 50.2124 75.0536 50.3608 75.3176 50.6248C75.5816 50.8888 75.7301 51.2468 75.7301 51.6202C75.7301 51.9936 75.5816 52.3516 75.3176 52.6156C75.0536 52.8796 74.6956 53.0276 74.3222 53.0276H72.9479C71.9579 52.9748 71.0286 52.5328 70.3634 51.7976C69.6981 51.0625 69.3507 50.0939 69.3968 49.1035C69.4518 48.1601 69.8555 47.271 70.5292 46.6084C71.2029 45.9457 72.0987 45.557 73.0429 45.5176H83.5095C84.4589 45.6204 85.3366 46.0715 85.9724 46.7841C86.6082 47.4966 86.957 48.4197 86.9515 49.3746C86.9492 50.2851 86.6095 51.1625 85.9982 51.8371C85.3869 52.5118 84.5471 52.9358 83.6413 53.0276Z" fill="white"/>
<path d="M86.1698 111.719H76.8331C76.4598 111.719 76.1017 111.571 75.8377 111.307C75.5737 111.043 75.4253 110.685 75.4253 110.311C75.4253 109.938 75.5737 109.58 75.8377 109.316C76.1017 109.052 76.4598 108.903 76.8331 108.903H86.1698C86.7366 108.901 87.2793 108.674 87.6791 108.272C88.0788 107.871 88.3029 107.327 88.3024 106.76V68.5097C88.3028 68.2511 88.256 67.9948 88.1637 67.7532C88.0527 67.4096 88.0778 67.0365 88.2341 66.711C88.3905 66.3855 88.666 66.1324 89.0036 66.0043C89.3412 65.8761 89.7154 65.8825 90.0484 66.0223C90.3813 66.1621 90.6475 66.4245 90.7925 66.7552C91.0061 67.3173 91.1154 67.9136 91.1147 68.5149V106.765C91.1142 108.077 90.5934 109.336 89.6664 110.264C88.7395 111.193 87.4819 111.716 86.1698 111.719Z" fill="white"/>
<path d="M71.1192 58.3687C70.8799 58.3681 70.6449 58.3067 70.4361 58.19C70.2272 58.0733 70.0516 57.9053 69.9257 57.702C69.7998 57.4986 69.7278 57.2664 69.7165 57.0275C69.7052 56.7885 69.7547 56.5506 69.8608 56.3362C70.1001 55.8558 70.3168 55.4369 70.5138 55.0586C71.031 54.2006 71.4183 53.271 71.663 52.2996C71.6866 52.1083 71.7492 51.9236 71.8469 51.7574C71.9447 51.5913 72.0752 51.4469 72.231 51.3334C72.3868 51.2199 72.5644 51.1397 72.7525 51.0975C72.9407 51.0554 73.1354 51.0523 73.3248 51.0885C73.5141 51.1248 73.6939 51.1995 73.8532 51.3081C74.0125 51.4167 74.1477 51.557 74.2506 51.7201C74.3535 51.8831 74.4217 52.0653 74.4512 52.2558C74.4807 52.4463 74.4708 52.6411 74.422 52.8276C74.133 54.065 73.6583 55.2516 73.0142 56.347C72.8241 56.7147 72.6132 57.1211 72.3809 57.5787C72.2655 57.8151 72.0858 58.0142 71.8628 58.1539C71.6398 58.2936 71.3823 58.3681 71.1192 58.3687Z" fill="white"/>
<path d="M89.4958 68.7983C89.1329 68.7986 88.7838 68.6586 88.5215 68.4078C88.2592 68.1569 88.1039 67.8145 88.088 67.4519C87.6272 66.0221 86.976 64.6611 86.1522 63.4049C84.1 60.0972 82.5493 56.5035 81.5506 52.7412C81.4993 52.5569 81.4862 52.364 81.5119 52.1745C81.5376 51.985 81.6016 51.8027 81.7001 51.6388C81.7986 51.4748 81.9294 51.3329 82.0846 51.2212C82.2398 51.1095 82.416 51.0305 82.6027 50.9892C82.7894 50.9479 82.9828 50.9452 83.1707 50.981C83.3585 51.0169 83.5372 51.0904 83.6956 51.1976C83.8541 51.3047 83.989 51.443 84.0922 51.604C84.1954 51.765 84.2646 51.9454 84.2958 52.1341C85.242 55.6235 86.6933 58.9555 88.6035 62.025C89.7186 63.6229 90.497 65.4311 90.8912 67.3393C90.906 67.7116 90.7723 68.0748 90.52 68.3489C90.2677 68.623 89.917 68.7857 89.5448 68.8017L89.4958 68.7983Z" fill="white"/>
<path d="M84.229 104.205H84.171C83.7984 104.189 83.4472 104.026 83.1945 103.752C82.9418 103.478 82.8081 103.115 82.8228 102.743C82.8668 101.703 83.0818 80.7992 83.0677 75.6433C83.0189 74.0524 82.7254 72.4787 82.1982 70.9769C82.1071 70.6294 82.1523 70.2602 82.3245 69.945C82.4967 69.6297 82.7832 69.3919 83.1249 69.2808C83.4665 69.1697 83.8377 69.1937 84.1624 69.3474C84.4871 69.501 84.7405 69.7728 84.8712 70.1074C85.4903 71.8874 85.8304 73.7525 85.8795 75.6365C85.8918 80.2856 85.6862 101.574 85.6316 102.855C85.6167 103.218 85.4624 103.56 85.2012 103.812C84.9399 104.063 84.5916 104.204 84.229 104.205Z" fill="white"/>
<path d="M82.068 67.3216C81.7808 67.3212 81.5006 67.2332 81.265 67.069C81.0295 66.9048 80.8497 66.6724 80.7499 66.4031L79.9354 64.1984C79.8627 64.0232 79.8258 63.8351 79.8276 63.6455C79.8293 63.4558 79.8693 63.2685 79.9453 63.0947C80.0212 62.9209 80.1316 62.7643 80.2696 62.6341C80.4076 62.504 80.5707 62.4029 80.7487 62.3373C80.9266 62.2717 81.116 62.2428 81.3054 62.2522C81.4949 62.2616 81.6805 62.3094 81.851 62.3923C82.0216 62.4752 82.1734 62.5915 82.2978 62.7347C82.4223 62.8778 82.5166 63.0448 82.5749 63.2253L83.3878 65.4301C83.5163 65.7796 83.5013 66.1661 83.3457 66.5045C83.19 66.8429 82.9065 67.1059 82.5573 67.2357C82.4005 67.2925 82.2348 67.3214 82.068 67.3216Z" fill="white"/>
<path d="M112.479 37.5179L100.784 24.755V24.5789L100.705 24.6652L100.626 24.5789V24.755L88.9309 37.5179H95.0142V66.4491H106.551V37.5179H112.479Z" stroke="white" stroke-width="2" stroke-linecap="round" stroke-linejoin="round"/>
</g>
</svg>
