<svg width="134" height="134" viewBox="0 0 134 134" fill="none" xmlns="http://www.w3.org/2000/svg">
<mask id="mask0_30_4450" style="mask-type:luminance" maskUnits="userSpaceOnUse" x="0" y="0" width="134" height="134">
<path d="M134 0H0V134H134V0Z" fill="white"/>
</mask>
<g mask="url(#mask0_30_4450)">
<path d="M104.349 73.4737H29.6489C29.3185 73.4737 29.0014 73.3426 28.7678 73.109C28.5341 72.8753 28.403 72.5583 28.403 72.2278V39.3605C28.403 39.0301 28.5341 38.713 28.7678 38.4794C29.0014 38.2457 29.3185 38.1146 29.6489 38.1146H104.349C104.68 38.1146 104.997 38.2457 105.23 38.4794C105.464 38.713 105.595 39.0301 105.595 39.3605V72.2278C105.595 72.5583 105.464 72.8753 105.23 73.109C104.997 73.3426 104.68 73.4737 104.349 73.4737ZM30.893 70.9837H103.105V40.6098H30.893V70.9837Z" fill="white"/>
<path d="M104.349 80.9433H29.6489C29.3187 80.9433 29.0021 80.8125 28.7686 80.579C28.5351 80.3455 28.4039 80.0285 28.4039 79.6983C28.4039 79.3681 28.5351 79.0515 28.7686 78.818C29.0021 78.5846 29.3187 78.4537 29.6489 78.4537H104.349C104.679 78.4537 104.996 78.5846 105.229 78.818C105.463 79.0515 105.594 79.3681 105.594 79.6983C105.594 80.0285 105.463 80.3455 105.229 80.579C104.996 80.8125 104.679 80.9433 104.349 80.9433Z" fill="white"/>
<path d="M104.349 88.4134H29.6489C29.4815 88.4197 29.3144 88.3919 29.1579 88.3322C29.0013 88.2725 28.8584 88.1821 28.7377 88.0658C28.617 87.9496 28.521 87.8102 28.4554 87.656C28.3899 87.5018 28.3562 87.3359 28.3562 87.1684C28.3562 87.0008 28.3899 86.8349 28.4554 86.6808C28.521 86.5266 28.617 86.3871 28.7377 86.2709C28.8584 86.1547 29.0013 86.0643 29.1579 86.0046C29.3144 85.9448 29.4815 85.9171 29.6489 85.9234H104.349C104.517 85.9171 104.684 85.9448 104.84 86.0046C104.997 86.0643 105.14 86.1547 105.26 86.2709C105.381 86.3871 105.477 86.5266 105.543 86.6808C105.608 86.8349 105.642 87.0008 105.642 87.1684C105.642 87.3359 105.608 87.5018 105.543 87.656C105.477 87.8102 105.381 87.9496 105.26 88.0658C105.14 88.1821 104.997 88.2725 104.84 88.3322C104.684 88.3919 104.517 88.4197 104.349 88.4134Z" fill="white"/>
<path d="M104.349 95.883H29.6489C29.3187 95.883 29.0021 95.7522 28.7686 95.5187C28.5351 95.2852 28.4039 94.9686 28.4039 94.6384C28.4039 94.3083 28.5351 93.9912 28.7686 93.7577C29.0021 93.5243 29.3187 93.3934 29.6489 93.3934H104.349C104.679 93.3934 104.996 93.5243 105.229 93.7577C105.463 93.9912 105.594 94.3083 105.594 94.6384C105.594 94.9686 105.463 95.2852 105.229 95.5187C104.996 95.7522 104.679 95.883 104.349 95.883Z" fill="white"/>
<path d="M66.9995 65.008C65.1772 65.0083 63.3957 64.4684 61.8803 63.4562C60.3649 62.444 59.1836 61.0052 58.4859 59.3217C57.7883 57.6381 57.6056 55.7853 57.961 53.9979C58.3163 52.2105 59.1939 50.5687 60.4823 49.28C61.7708 47.9912 63.4126 47.1134 65.1999 46.7577C66.9872 46.4021 68.8399 46.5845 70.5236 47.2818C72.2073 47.9791 73.6461 49.1601 74.6586 50.6753C75.6711 52.1906 76.2117 53.9718 76.2117 55.7941C76.2089 58.2366 75.2376 60.5785 73.5107 62.3057C71.7838 64.033 69.442 65.0047 66.9995 65.008ZM66.9995 49.0707C65.6696 49.0704 64.3696 49.4642 63.2636 50.2028C62.1577 50.9414 61.2957 51.9913 60.7865 53.2199C60.2773 54.4485 60.1441 55.8005 60.4033 57.1049C60.6625 58.4093 61.3026 59.6077 62.2429 60.5482C63.1832 61.4887 64.3815 62.1291 65.6858 62.3887C66.9901 62.6482 68.342 62.5152 69.5708 62.0063C70.7995 61.4975 71.8494 60.6358 72.5883 59.53C73.3272 58.4243 73.7217 57.124 73.7217 55.7941C73.7198 54.0118 73.0112 52.3031 71.751 51.0426C70.4909 49.7822 68.7819 49.0731 66.9995 49.0707Z" fill="white"/>
<path d="M41.9753 73.0742H30.1468C29.7902 73.0742 29.4482 72.9328 29.1961 72.6806C28.944 72.4285 28.8026 72.0865 28.8026 71.7299V59.901C28.8026 59.5445 28.944 59.2028 29.1961 58.9507C29.4482 58.6986 29.7902 58.5568 30.1468 58.5568C33.6394 58.5605 36.9877 59.9498 39.4573 62.4194C41.9269 64.889 43.3162 68.2374 43.32 71.7299C43.32 72.0865 43.1781 72.4285 42.926 72.6806C42.6739 72.9328 42.3318 73.0742 41.9753 73.0742ZM31.4911 70.3852H40.5464C40.2459 68.0891 39.1952 65.9568 37.5576 64.3196C35.92 62.6823 33.7872 61.6317 31.4911 61.3316V70.3852Z" fill="white"/>
<path d="M30.1468 53.0316C29.7902 53.0316 29.4482 52.8897 29.1961 52.6376C28.944 52.3855 28.8026 52.0434 28.8026 51.6869V39.8584C28.8026 39.6819 28.8372 39.5068 28.9048 39.3437C28.9724 39.1806 29.0712 39.0325 29.1961 38.9077C29.3209 38.7828 29.469 38.684 29.6321 38.6164C29.7952 38.5488 29.9703 38.5142 30.1468 38.5142H41.9753C42.1518 38.5142 42.3268 38.5488 42.4899 38.6164C42.6531 38.684 42.8012 38.7828 42.926 38.9077C43.0508 39.0325 43.1497 39.1806 43.2173 39.3437C43.2848 39.5068 43.32 39.6819 43.32 39.8584C43.3162 43.351 41.9269 46.6993 39.4573 49.1689C36.9877 51.6385 33.6394 53.0278 30.1468 53.0316ZM31.4911 41.2027V50.2563C33.7874 49.9565 35.9204 48.9065 37.558 47.2692C39.1957 45.6318 40.2462 43.4989 40.5464 41.2027H31.4911Z" fill="white"/>
<path d="M103.846 73.0742H92.0172C91.6606 73.0742 91.319 72.9328 91.0669 72.6806C90.8147 72.4285 90.6729 72.0865 90.6729 71.7299C90.6766 68.2374 92.0655 64.889 94.5351 62.4194C97.0047 59.9498 100.354 58.5605 103.846 58.5568C104.203 58.5568 104.544 58.6986 104.796 58.9507C105.048 59.2028 105.19 59.5445 105.19 59.901V71.7299C105.19 72.0865 105.048 72.4285 104.796 72.6806C104.544 72.9328 104.203 73.0742 103.846 73.0742ZM93.4478 70.3852H102.503V61.3316C100.208 61.6322 98.0758 62.6831 96.4391 64.3204C94.8025 65.9577 93.753 68.0897 93.4534 70.3852H93.4478Z" fill="white"/>
<path d="M103.846 53.0316C100.354 53.0278 97.0047 51.6385 94.5351 49.1689C92.0655 46.6993 90.6766 43.351 90.6729 39.8584C90.6729 39.5019 90.8147 39.1598 91.0669 38.9077C91.319 38.6556 91.6606 38.5142 92.0172 38.5142H103.846C104.203 38.5142 104.544 38.6556 104.796 38.9077C105.048 39.1598 105.19 39.5019 105.19 39.8584V51.6869C105.19 52.0434 105.048 52.3855 104.796 52.6376C104.544 52.8897 104.203 53.0316 103.846 53.0316ZM93.4478 41.2027C93.7474 43.4991 94.7979 45.6322 96.4357 47.2696C98.0735 48.9071 100.207 49.9571 102.503 50.2563V41.2027H93.4478Z" fill="white"/>
<path d="M50.8143 58.5357C52.3275 58.5357 53.5541 57.309 53.5541 55.7959C53.5541 54.2827 52.3275 53.056 50.8143 53.056C49.3011 53.056 48.0745 54.2827 48.0745 55.7959C48.0745 57.309 49.3011 58.5357 50.8143 58.5357Z" fill="white"/>
<path d="M83.1854 58.5357C84.6986 58.5357 85.9253 57.309 85.9253 55.7959C85.9253 54.2827 84.6986 53.056 83.1854 53.056C81.6723 53.056 80.4456 54.2827 80.4456 55.7959C80.4456 57.309 81.6723 58.5357 83.1854 58.5357Z" fill="white"/>
</g>
</svg>
