<svg width="134" height="134" viewBox="0 0 134 134" fill="none" xmlns="http://www.w3.org/2000/svg">
<mask id="mask0_30_4695" style="mask-type:luminance" maskUnits="userSpaceOnUse" x="0" y="0" width="134" height="134">
<path d="M134 0H0V134H134V0Z" fill="white"/>
</mask>
<g mask="url(#mask0_30_4695)">
<path d="M103.084 43.6592H30.9139V89.2403H103.084V43.6592Z" stroke="white" stroke-width="2" stroke-linecap="round" stroke-linejoin="round"/>
<path d="M66.9999 83.5423V77.8445" stroke="white" stroke-width="2" stroke-linecap="round" stroke-linejoin="round"/>
<path d="M66.9999 49.3572V55.055" stroke="white" stroke-width="2" stroke-linecap="round" stroke-linejoin="round"/>
<path d="M76.4951 62.6513V60.7511C76.4947 59.2403 75.8942 57.7913 74.8257 56.7231C73.7572 55.6549 72.3081 55.0549 70.7972 55.0549H63.2009C61.69 55.0549 60.2409 55.6549 59.1724 56.7231C58.1039 57.7913 57.5034 59.2403 57.5029 60.7511C57.5029 62.2623 58.1034 63.7115 59.172 64.78C60.2405 65.8486 61.6897 66.4491 63.2009 66.4491H70.7972C72.3084 66.4491 73.7576 67.0491 74.8261 68.1177C75.8947 69.1862 76.4951 70.6358 76.4951 72.147C76.4951 73.6582 75.8947 75.1073 74.8261 76.1759C73.7576 77.2444 72.3084 77.8445 70.7972 77.8445H63.2009C61.6897 77.8445 60.2405 77.2444 59.172 76.1759C58.1034 75.1073 57.5029 73.6582 57.5029 72.147V70.2481" stroke="white" stroke-width="2" stroke-linecap="round" stroke-linejoin="round"/>
<path d="M87.891 89.2405V87.3417C87.8908 85.5957 88.2343 83.8669 88.9023 82.2538C89.5703 80.6406 90.5496 79.1748 91.7841 77.9401C93.0186 76.7054 94.4843 75.726 96.0974 75.0578C97.7105 74.3896 99.4393 74.0457 101.185 74.0457H103.084" stroke="white" stroke-width="2" stroke-linecap="round" stroke-linejoin="round"/>
<path d="M87.891 43.6592V45.5581C87.8908 47.304 88.2343 49.0329 88.9023 50.6459C89.5703 52.259 90.5496 53.7247 91.7841 54.9592C93.0187 56.1938 94.4844 57.173 96.0974 57.8411C97.7105 58.5091 99.4394 58.8526 101.185 58.8524H103.084" stroke="white" stroke-width="2" stroke-linecap="round" stroke-linejoin="round"/>
<path d="M46.1071 89.2405V87.3417C46.1073 85.5957 45.7638 83.8669 45.0958 82.2538C44.4278 80.6406 43.4485 79.1748 42.214 77.9401C40.9795 76.7054 39.5138 75.726 37.9007 75.0578C36.2876 74.3896 34.5588 74.0457 32.8128 74.0457H30.9139" stroke="white" stroke-width="2" stroke-linecap="round" stroke-linejoin="round"/>
<path d="M46.1071 43.6592V45.5581C46.1073 47.304 45.7638 49.0329 45.0958 50.6459C44.4278 52.259 43.4485 53.7247 42.214 54.9592C40.9794 56.1938 39.5138 57.173 37.9007 57.8411C36.2876 58.5091 34.5587 58.8526 32.8128 58.8524H30.9139" stroke="white" stroke-width="2" stroke-linecap="round" stroke-linejoin="round"/>
</g>
</svg>
