<svg width="134" height="134" viewBox="0 0 134 134" fill="none" xmlns="http://www.w3.org/2000/svg">
<g clip-path="url(#clip0_30_4660)">
<path d="M96.6472 35.4637V30.6284C96.6472 30.1964 96.2977 29.8308 95.8484 29.8308H37.1351C36.7024 29.8308 36.3363 30.1798 36.3363 30.6284V35.4637L27.9154 54.5559C27.8654 54.6556 27.8322 54.7719 27.8322 54.8882C27.8322 57.5967 29.1469 60.0725 31.327 61.6344V104.355C31.327 104.787 31.6765 105.153 32.1258 105.153H46.4879H46.5212H86.4622H86.4955H100.858C101.29 105.153 101.656 104.804 101.656 104.355V61.6344C103.853 60.0725 105.151 57.5801 105.151 54.8882C105.151 54.7719 105.118 54.6556 105.068 54.5559L96.6305 35.4471L96.6472 35.4637ZM58.0209 55.6858C57.6215 59.0257 54.7757 61.6344 51.3308 61.6344C47.8859 61.6344 45.0234 59.0423 44.6407 55.6858H58.0375H58.0209ZM73.1818 55.6858C72.7824 59.0257 69.9366 61.6344 66.4917 61.6344C63.0468 61.6344 60.1844 59.0423 59.8016 55.6858H73.1985H73.1818ZM88.3428 55.6858C87.9434 59.0257 85.0976 61.6344 81.6527 61.6344C78.2078 61.6344 75.3453 59.0423 74.9625 55.6858H88.3594H88.3428ZM89.2914 54.0906H29.8458L37.6843 36.361H95.3158L103.138 54.0906H89.2914ZM37.9339 31.426H95.0662V34.7825H37.9339V31.426ZM29.4631 55.6858H42.81C42.81 55.7855 42.81 55.8852 42.7767 55.9849C42.7435 56.1843 42.7102 56.3671 42.6603 56.5498C42.5937 56.7825 42.5271 57.0151 42.4439 57.2311C42.3773 57.4139 42.3108 57.5801 42.2276 57.7462C42.1277 57.9622 42.0112 58.1616 41.8947 58.361C41.7949 58.5106 41.695 58.6767 41.5952 58.8263C41.462 59.0257 41.2956 59.1918 41.1458 59.3746C41.0293 59.5075 40.9128 59.6405 40.7797 59.7734C40.5966 59.9396 40.4136 60.0891 40.2139 60.2387C40.0807 60.3384 39.9476 60.4547 39.7978 60.5544C39.5815 60.6873 39.3651 60.8036 39.1321 60.9199C38.9824 60.9864 38.8492 61.0861 38.6828 61.1359C38.4165 61.2356 38.1502 61.3187 37.8673 61.3852C37.7342 61.4184 37.6011 61.4683 37.4513 61.5015C37.0352 61.5846 36.5859 61.6344 36.1366 61.6344C34.8385 61.6344 33.5737 61.2689 32.5086 60.571C30.7778 59.4743 29.6628 57.6798 29.4298 55.6858H29.4631ZM67.2905 67.8157H85.68V103.557H67.2905V67.8157ZM65.6929 103.557H47.3034V67.8157H65.6929V103.557ZM100.059 103.557H87.2444V67.0181C87.2444 66.5861 86.8949 66.2205 86.4456 66.2205H46.5212C46.0885 66.2205 45.7224 66.5695 45.7224 67.0181V103.557H32.9246V62.5483C32.9246 62.5483 33.0744 62.5816 33.141 62.6148C33.5071 62.7643 33.8899 62.8807 34.2726 62.9637C34.4058 62.997 34.5389 63.0302 34.6721 63.0468C35.1547 63.1299 35.6539 63.1964 36.1698 63.1964C36.719 63.1964 37.2682 63.1299 37.8008 63.0302C37.9838 62.997 38.1502 62.9305 38.3167 62.8807C38.6495 62.7976 38.999 62.6979 39.3152 62.5649C39.5149 62.4819 39.698 62.3656 39.881 62.2825C40.1639 62.1495 40.4302 62.0166 40.6965 61.8338C40.8795 61.7175 41.046 61.568 41.229 61.435C41.462 61.2523 41.695 61.0861 41.9114 60.8701C42.0778 60.7039 42.2276 60.5378 42.3773 60.355C42.5604 60.139 42.7601 59.923 42.9265 59.6903C43.0597 59.5075 43.1762 59.2915 43.2927 59.0921C43.4424 58.8429 43.5756 58.5936 43.7087 58.3278C43.7087 58.2946 43.742 58.2779 43.742 58.2613C45.0567 61.1526 47.9524 63.1798 51.3308 63.1798C54.7091 63.1798 57.6049 61.1526 58.9196 58.2613C60.2343 61.1526 63.13 63.1798 66.5084 63.1798C69.8867 63.1798 72.7824 61.1526 74.0972 58.2613C75.4119 61.1526 78.3076 63.1798 81.686 63.1798C85.0643 63.1798 87.96 61.1526 89.2747 58.2613C89.2747 58.2946 89.308 58.3112 89.308 58.3278C89.4245 58.5936 89.5743 58.8429 89.7241 59.0921C89.8406 59.2915 89.9571 59.4909 90.0902 59.6903C90.2566 59.923 90.4397 60.139 90.6394 60.355C90.7892 60.5211 90.939 60.7039 91.1054 60.8701C91.3217 61.0695 91.5547 61.2523 91.7877 61.435C91.9708 61.568 92.1372 61.7175 92.3203 61.8338C92.5865 62 92.8528 62.1329 93.1357 62.2825C93.3188 62.3822 93.5018 62.4819 93.7015 62.5649C94.0177 62.6979 94.3672 62.781 94.7001 62.8807C94.8831 62.9305 95.0329 62.997 95.216 63.0302C95.7485 63.1299 96.2811 63.1964 96.8469 63.1964C97.3628 63.1964 97.8454 63.1299 98.3447 63.0468C98.4778 63.0302 98.611 62.997 98.7441 62.9637C99.1435 62.864 99.5263 62.7477 99.909 62.5982C99.9756 62.5649 100.042 62.5649 100.109 62.5317V103.541L100.059 103.557ZM100.425 60.571C99.3598 61.2523 98.1117 61.6178 96.8136 61.6178C96.3643 61.6178 95.9316 61.568 95.4989 61.4849C95.3658 61.4517 95.2326 61.4018 95.0828 61.3686C94.7999 61.3021 94.5336 61.219 94.2674 61.1193C94.1176 61.0529 93.9678 60.9698 93.818 60.9033C93.5851 60.787 93.3687 60.6707 93.1524 60.5378C93.0026 60.4381 92.8694 60.3384 92.7363 60.222C92.5366 60.0725 92.3535 59.923 92.1705 59.7568C92.0373 59.6405 91.9208 59.4909 91.8043 59.358C91.6546 59.1752 91.4881 59.0091 91.355 58.8097C91.2551 58.6601 91.1553 58.5106 91.0555 58.3444C90.939 58.145 90.8225 57.9456 90.7226 57.7296C90.6394 57.5634 90.5728 57.3807 90.5063 57.2145C90.423 56.9985 90.3565 56.7659 90.2899 56.5332C90.24 56.3504 90.2067 56.1677 90.1734 55.9683C90.1734 55.8686 90.1568 55.7689 90.1401 55.6692H103.487C103.254 57.6631 102.139 59.4577 100.392 60.5544L100.425 60.571Z" fill="white" stroke="white" stroke-miterlimit="10"/>
</g>
<defs>
<clipPath id="clip0_30_4660">
<rect width="79" height="77" fill="white" transform="translate(27 29)"/>
</clipPath>
</defs>
</svg>
